<?xml version="1.0" encoding="UTF-8"?>
<!DOCTYPE svg PUBLIC "-//W3C//DTD SVG 1.1//EN" "http://www.w3.org/Graphics/SVG/1.1/DTD/svg11.dtd">
<!-- Creator: CorelDRAW 2018 (64-Bit) -->
<svg xmlns="http://www.w3.org/2000/svg" xml:space="preserve" width="100mm" height="100mm" version="1.1" style="shape-rendering:geometricPrecision; text-rendering:geometricPrecision; image-rendering:optimizeQuality; fill-rule:evenodd; clip-rule:evenodd"
viewBox="0 0 1000 1000"
 xmlns:xlink="http://www.w3.org/1999/xlink">
 <defs>
  <style type="text/css">
   <![CDATA[
    .fil0 {fill:none}
    .fil1 {fill:white}
   ]]>
  </style>
 </defs>
 <g id="Layer_x0020_1">
  <metadata id="CorelCorpID_0Corel-Layer"/>
  <rect class="fil0" y="0" width="1000" height="1000"/>
  <path class="fil1" d="M488.718 125.192c32.652,-1.438 64.871,1.502 95.946,8.401l68.443 -63.006c8.093,-7.453 16.609,-14.324 26.578,-9.675l45.278 21.114c9.97,4.647 10.178,15.592 9.673,26.578l-4.275 92.998c25.396,19.482 48.365,42.297 68.148,68.03l92.886 -4.27c10.988,-0.506 21.93,-0.296 26.579,9.675l21.113 45.277c4.651,9.968 -2.226,18.486 -9.674,26.577l-63.038 68.478c7.135,32.17 9.829,64.374 8.473,95.942l73.887 56.426c8.743,6.675 16.989,13.869 14.141,24.494l-12.931 48.256c-2.843,10.625 -13.585,12.731 -24.493,14.142l-92.319 11.937c-14.869,28.499 -33.407,55.045 -55.182,78.879l20.346 90.781c2.405,10.735 4.099,21.546 -4.912,27.855l-40.924 28.653c-9.009,6.312 -18.591,1.02 -27.853,-4.91l-78.358 -50.174c-14.693,6.054 -29.937,11.242 -45.698,15.465 -15.761,4.223 -31.557,7.355 -47.309,9.458l-42.771 82.628c-5.057,9.769 -10.71,19.139 -21.667,18.181l-49.768 -4.355c-10.959,-0.956 -14.897,-11.169 -18.18,-21.666l-27.779 -88.815c-30.761,-9.756 -60.078,-23.467 -87.192,-40.709l-85.948 35.834c-10.153,4.234 -20.507,7.778 -28.285,0l-35.326 -35.326c-7.779,-7.777 -4.232,-18.132 0.001,-28.284l35.795 -85.855c-16.948,-26.651 -30.724,-55.86 -40.625,-87.271l-88.86 -27.792c-10.498,-3.284 -20.708,-7.222 -21.667,-18.181l-4.354 -49.768c-0.959,-10.958 8.414,-16.61 18.181,-21.666l82.574 -42.745c4.271,-32.177 12.749,-63.422 25.004,-92.992l-50.2 -78.398c-5.932,-9.265 -11.222,-18.844 -4.912,-27.855l28.655 -40.924c6.309,-9.01 17.121,-7.316 27.854,-4.91l90.789 20.347c23.463,-21.509 49.885,-40.174 78.88,-55.252l11.928 -92.251c1.411,-10.91 3.517,-21.648 14.142,-24.495l48.256 -12.93c10.625,-2.847 17.819,5.401 24.495,14.142l56.455 73.927zm-59.17 556.673c0,2.094 -0.661,3.967 -1.983,5.62 -1.213,1.653 -3.417,2.976 -6.612,4.078 -3.086,0.992 -7.274,1.873 -12.343,2.424 -5.179,0.551 -11.791,0.772 -19.726,0.772 -7.934,0 -14.546,-0.221 -19.726,-0.772 -5.069,-0.551 -9.257,-1.432 -12.342,-2.424 -3.196,-1.102 -5.4,-2.425 -6.613,-4.078 -1.322,-1.653 -1.983,-3.526 -1.983,-5.62l0 -287.625c0,-2.094 0.661,-3.967 1.983,-5.62 1.213,-1.653 3.417,-3.086 6.613,-4.188 3.085,-1.212 7.273,-2.094 12.342,-2.755 5.18,-0.661 11.792,-0.992 19.726,-0.992 7.935,0 14.547,0.331 19.726,0.992 5.069,0.661 9.257,1.543 12.343,2.755 3.195,1.102 5.399,2.535 6.612,4.188 1.322,1.653 1.983,3.526 1.983,5.62l0 287.625zm6.612 -386.145c0,16.42 -3.306,27.661 -10.028,33.942 -6.722,6.282 -19.065,9.367 -37.248,9.367 -18.293,0 -30.746,-2.975 -37.028,-9.036 -6.391,-6.061 -9.587,-16.971 -9.587,-32.62 0,-16.42 3.306,-27.77 9.918,-34.162 6.502,-6.282 18.955,-9.477 37.358,-9.477 18.073,0 30.416,3.085 36.918,9.256 6.502,6.062 9.697,16.971 9.697,32.73zm277.487 304.596c0,16.31 -3.085,30.746 -9.257,43.309 -6.061,12.453 -14.766,22.812 -26.007,31.297 -11.241,8.376 -24.465,14.657 -39.783,18.845 -15.318,4.187 -31.848,6.281 -49.7,6.281 -10.8,0 -21.159,-0.771 -30.967,-2.424 -9.808,-1.653 -18.514,-3.747 -26.338,-6.282 -7.714,-2.424 -14.216,-4.959 -19.395,-7.603 -5.18,-2.645 -8.927,-5.07 -11.241,-7.384 -2.424,-2.314 -4.298,-5.841 -5.51,-10.689 -1.322,-4.739 -1.984,-11.902 -1.984,-21.38 0,-6.171 0.221,-11.13 0.662,-14.877 0.44,-3.747 1.102,-6.832 1.873,-9.036 0.882,-2.204 1.984,-3.747 3.306,-4.518 1.212,-0.772 2.865,-1.102 4.849,-1.102 2.314,0 5.841,1.322 10.469,4.077 4.629,2.755 10.359,5.73 17.302,8.926 6.832,3.306 14.877,6.392 24.024,9.147 9.146,2.865 19.615,4.298 31.186,4.298 7.274,0 13.886,-0.772 19.506,-2.314 5.731,-1.433 10.69,-3.637 14.877,-6.502 4.188,-2.755 7.384,-6.282 9.588,-10.69 2.094,-4.298 3.196,-9.257 3.196,-14.877 0,-6.502 -1.984,-12.012 -5.951,-16.64 -4.078,-4.629 -9.367,-8.706 -15.869,-12.122 -6.612,-3.417 -14.106,-6.612 -22.371,-9.698 -8.265,-2.976 -16.861,-6.282 -25.567,-10.028 -8.706,-3.637 -17.301,-7.825 -25.566,-12.563 -8.266,-4.739 -15.759,-10.469 -22.371,-17.412 -6.502,-6.833 -11.792,-15.208 -15.869,-24.795 -3.968,-9.698 -5.951,-21.379 -5.951,-34.934 0,-13.775 2.755,-26.338 8.155,-37.909 5.4,-11.461 13.114,-21.379 23.252,-29.534 10.249,-8.155 22.591,-14.547 37.138,-19.065 14.657,-4.518 30.967,-6.722 49.15,-6.722 9.146,0 17.852,0.661 26.448,1.873 8.485,1.322 16.31,2.976 23.142,4.849 6.943,1.984 12.784,3.967 17.522,6.281 4.739,2.204 8.155,4.188 10.249,5.731 2.094,1.653 3.526,3.196 4.408,4.849 0.771,1.653 1.433,3.526 1.873,5.84 0.441,2.204 0.882,5.07 1.213,8.376 0.33,3.306 0.44,7.493 0.44,12.452 0,5.841 -0.11,10.58 -0.44,14.216 -0.331,3.637 -0.882,6.612 -1.653,8.706 -0.772,2.204 -1.764,3.637 -3.086,4.408 -1.322,0.772 -2.865,1.102 -4.518,1.102 -1.984,0 -5.07,-1.102 -9.147,-3.416 -4.077,-2.204 -9.257,-4.628 -15.428,-7.163 -6.171,-2.535 -13.334,-4.959 -21.379,-7.163 -8.155,-2.314 -17.412,-3.416 -27.771,-3.416 -7.383,0 -13.775,0.771 -19.175,2.204 -5.4,1.543 -9.808,3.747 -13.334,6.502 -3.416,2.755 -6.061,6.061 -7.714,9.807 -1.764,3.747 -2.645,7.825 -2.645,12.012 0,6.723 2.094,12.343 6.171,16.861 4.078,4.518 9.477,8.486 16.2,11.902 6.612,3.416 14.326,6.722 22.811,9.698 8.486,2.975 17.192,6.281 25.898,9.807 8.706,3.527 17.411,7.715 25.897,12.453 8.485,4.739 16.199,10.58 22.812,17.412 6.722,6.943 12.122,15.098 16.199,24.685 4.078,9.588 6.171,20.938 6.171,34.052z"/>
 </g>
</svg>
