<?xml version="1.0" encoding="UTF-8"?>
<!DOCTYPE svg PUBLIC "-//W3C//DTD SVG 1.1//EN" "http://www.w3.org/Graphics/SVG/1.1/DTD/svg11.dtd">
<!-- Creator: CorelDRAW 2021 (64-Bit) -->
<svg xmlns="http://www.w3.org/2000/svg" xml:space="preserve" width="92.7mm" height="92.7mm" version="1.1" style="shape-rendering:geometricPrecision; text-rendering:geometricPrecision; image-rendering:optimizeQuality; fill-rule:evenodd; clip-rule:evenodd"
viewBox="0 0 9270 9270"
 xmlns:xlink="http://www.w3.org/1999/xlink"
 xmlns:xodm="http://www.corel.com/coreldraw/odm/2003">
 <defs>
  <style type="text/css">
   <![CDATA[
    .fil0 {fill:white}
   ]]>
  </style>
 </defs>
 <g id="Layer_x0020_1">
  <metadata id="CorelCorpID_0Corel-Layer"/>
  <path class="fil0" d="M4517.45 891.65c326.52,-14.38 648.71,15.02 959.46,84.01l684.43 -630.06c80.93,-74.53 166.09,-143.24 265.78,-96.75l452.78 211.14c99.7,46.47 101.78,155.92 96.73,265.78l-42.75 929.98c253.96,194.82 483.65,422.97 681.48,680.3l928.86 -42.7c109.88,-5.06 219.3,-2.96 265.79,96.75l211.13 452.77c46.51,99.68 -22.26,184.86 -96.74,265.77l-630.38 684.78c71.35,321.7 98.29,643.74 84.73,959.42l738.87 564.26c87.43,66.75 169.89,138.69 141.41,244.94l-129.31 482.56c-28.43,106.25 -135.85,127.31 -244.93,141.42l-923.19 119.37c-148.69,284.99 -334.07,550.45 -551.82,788.79l203.46 907.81c24.05,107.35 40.99,215.46 -49.12,278.55l-409.24 286.53c-90.09,63.12 -185.91,10.2 -278.53,-49.1l-783.58 -501.74c-146.93,60.54 -299.37,112.42 -456.98,154.65 -157.61,42.23 -315.57,73.55 -473.09,94.58l-427.71 826.28c-50.57,97.69 -107.1,191.39 -216.67,181.81l-497.68 -43.55c-109.59,-9.56 -148.97,-111.69 -181.8,-216.66l-277.79 -888.15c-307.61,-97.56 -600.78,-234.67 -871.92,-407.09l-859.48 358.34c-101.53,42.34 -205.07,77.78 -282.85,0l-353.26 -353.26c-77.79,-77.77 -42.32,-181.32 0.01,-282.84l357.95 -858.55c-169.48,-266.51 -307.24,-558.6 -406.25,-872.71l-888.6 -277.92c-104.98,-32.84 -207.08,-72.22 -216.67,-181.81l-43.54 -497.68c-9.59,-109.58 84.14,-166.1 181.81,-216.66l825.74 -427.45c42.71,-321.77 127.49,-634.22 250.04,-929.92l-502 -783.98c-59.32,-92.65 -112.22,-188.44 -49.12,-278.55l286.55 -409.24c63.09,-90.1 171.21,-73.16 278.54,-49.1l907.89 203.47c234.63,-215.09 498.85,-401.74 788.8,-552.52l119.28 -922.51c14.11,-109.1 35.17,-216.48 141.42,-244.95l482.56 -129.3c106.25,-28.47 178.19,54.01 244.95,141.42l564.55 739.27zm-591.7 5566.73c0,20.94 -6.61,39.67 -19.83,56.2 -12.13,16.53 -34.17,29.76 -66.12,40.78 -30.86,9.92 -72.74,18.73 -123.43,24.24 -51.79,5.51 -117.91,7.72 -197.26,7.72 -79.34,0 -145.46,-2.21 -197.26,-7.72 -50.69,-5.51 -92.57,-14.32 -123.42,-24.24 -31.96,-11.02 -54,-24.25 -66.13,-40.78 -13.22,-16.53 -19.83,-35.26 -19.83,-56.2l0 -2876.25c0,-20.94 6.61,-39.67 19.83,-56.2 12.13,-16.53 34.17,-30.86 66.13,-41.88 30.85,-12.12 72.73,-20.94 123.42,-27.55 51.8,-6.61 117.92,-9.92 197.26,-9.92 79.35,0 145.47,3.31 197.26,9.92 50.69,6.61 92.57,15.43 123.43,27.55 31.95,11.02 53.99,25.35 66.12,41.88 13.22,16.53 19.83,35.26 19.83,56.2l0 2876.25zm66.12 -3861.45c0,164.2 -33.06,276.61 -100.28,339.42 -67.22,62.82 -190.65,93.67 -372.48,93.67 -182.93,0 -307.46,-29.75 -370.28,-90.36 -63.91,-60.61 -95.87,-169.71 -95.87,-326.2 0,-164.2 33.06,-277.7 99.18,-341.62 65.02,-62.82 189.55,-94.77 373.58,-94.77 180.73,0 304.16,30.85 369.18,92.56 65.02,60.62 96.97,169.71 96.97,327.3zm2774.87 3045.96c0,163.1 -30.85,307.46 -92.57,433.09 -60.61,124.53 -147.66,228.12 -260.07,312.97 -112.41,83.76 -244.65,146.57 -397.83,188.45 -153.18,41.87 -318.48,62.81 -497,62.81 -108,0 -211.59,-7.71 -309.67,-24.24 -98.08,-16.53 -185.14,-37.47 -263.38,-62.82 -77.14,-24.24 -142.16,-49.59 -193.95,-76.03 -51.8,-26.45 -89.27,-50.7 -112.41,-73.84 -24.24,-23.14 -42.98,-58.41 -55.1,-106.89 -13.22,-47.39 -19.84,-119.02 -19.84,-213.8 0,-61.71 2.21,-111.3 6.62,-148.77 4.4,-37.47 11.02,-68.32 18.73,-90.36 8.82,-22.04 19.84,-37.47 33.06,-45.18 12.12,-7.72 28.65,-11.02 48.49,-11.02 23.14,0 58.41,13.22 104.69,40.77 46.29,27.55 103.59,57.3 173.02,89.26 68.32,33.06 148.77,63.92 240.24,91.47 91.46,28.65 196.15,42.98 311.86,42.98 72.74,0 138.86,-7.72 195.06,-23.14 57.31,-14.33 106.9,-36.37 148.77,-65.02 41.88,-27.55 73.84,-62.82 95.88,-106.9 20.94,-42.98 31.96,-92.57 31.96,-148.77 0,-65.02 -19.84,-120.12 -59.51,-166.4 -40.78,-46.29 -93.67,-87.06 -158.69,-121.22 -66.12,-34.17 -141.06,-66.12 -223.71,-96.98 -82.65,-29.76 -168.61,-62.82 -255.67,-100.28 -87.06,-36.37 -173.01,-78.25 -255.66,-125.63 -82.66,-47.39 -157.59,-104.69 -223.71,-174.12 -65.02,-68.33 -117.92,-152.08 -158.69,-247.95 -39.68,-96.98 -59.51,-213.79 -59.51,-349.34 0,-137.75 27.55,-263.38 81.55,-379.09 54,-114.61 131.14,-213.79 232.52,-295.34 102.49,-81.55 225.91,-145.47 371.38,-190.65 146.57,-45.18 309.67,-67.22 491.5,-67.22 91.46,0 178.52,6.61 264.48,18.73 84.85,13.22 163.1,29.76 231.42,48.49 69.43,19.84 127.84,39.67 175.22,62.81 47.39,22.04 81.55,41.88 102.49,57.31 20.94,16.53 35.26,31.96 44.08,48.49 7.71,16.53 14.33,35.26 18.73,58.4 4.41,22.04 8.82,50.7 12.13,83.76 3.3,33.06 4.4,74.93 4.4,124.52 0,58.41 -1.1,105.8 -4.4,142.16 -3.31,36.37 -8.82,66.12 -16.53,87.06 -7.72,22.04 -17.64,36.37 -30.86,44.08 -13.22,7.72 -28.65,11.02 -45.18,11.02 -19.84,0 -50.7,-11.02 -91.47,-34.16 -40.77,-22.04 -92.57,-46.28 -154.28,-71.63 -61.71,-25.35 -133.34,-49.59 -213.79,-71.63 -81.55,-23.14 -174.12,-34.16 -277.71,-34.16 -73.83,0 -137.75,7.71 -191.75,22.04 -54,15.43 -98.08,37.47 -133.34,65.02 -34.16,27.55 -60.61,60.61 -77.14,98.07 -17.64,37.47 -26.45,78.25 -26.45,120.12 0,67.23 20.94,123.43 61.71,168.61 40.78,45.18 94.77,84.86 162,119.02 66.12,34.16 143.26,67.22 228.11,96.98 84.86,29.75 171.92,62.81 258.98,98.07 87.06,35.27 174.11,77.15 258.97,124.53 84.85,47.39 161.99,105.8 228.12,174.12 67.22,69.43 121.22,150.98 161.99,246.85 40.78,95.88 61.71,209.38 61.71,340.52z"/>
 </g>
</svg>
