<?xml version="1.0" encoding="UTF-8"?>
<!DOCTYPE svg PUBLIC "-//W3C//DTD SVG 1.1//EN" "http://www.w3.org/Graphics/SVG/1.1/DTD/svg11.dtd">
<!-- Creator: CorelDRAW 2018 (64-Bit) -->
<svg xmlns="http://www.w3.org/2000/svg" xml:space="preserve" width="360mm" height="120mm" version="1.1" style="shape-rendering:geometricPrecision; text-rendering:geometricPrecision; image-rendering:optimizeQuality; fill-rule:evenodd; clip-rule:evenodd"
viewBox="0 0 36000 12000"
 xmlns:xlink="http://www.w3.org/1999/xlink">
 <defs>
  <style type="text/css">
   <![CDATA[
    .fil4 {fill:none}
    .fil0 {fill:#00CCFF}
    .fil2 {fill:#00CCFF;fill-rule:nonzero}
    .fil3 {fill:#CCCCCC;fill-rule:nonzero}
    .fil1 {fill:white;fill-rule:nonzero}
   ]]>
  </style>
 </defs>
 <g id="Layer_x0020_1">
  <metadata id="CorelCorpID_0Corel-Layer"/>
  <path class="fil0" d="M6446.96 2251.92c326.52,-14.38 648.71,15.02 959.46,84.01l684.43 -630.06c80.93,-74.53 166.09,-143.24 265.78,-96.75l452.78 211.14c99.7,46.47 101.78,155.92 96.73,265.78l-42.75 929.98c253.96,194.82 483.65,422.97 681.48,680.3l928.86 -42.7c109.88,-5.06 219.3,-2.96 265.79,96.75l211.13 452.77c46.51,99.68 -22.26,184.86 -96.74,265.77l-630.38 684.78c71.35,321.7 98.29,643.74 84.73,959.42l738.87 564.26c87.43,66.75 169.89,138.69 141.41,244.94l-129.31 482.56c-28.43,106.25 -135.85,127.31 -244.93,141.42l-923.19 119.37c-148.69,284.99 -334.07,550.45 -551.82,788.79l203.46 907.81c24.05,107.35 40.99,215.46 -49.12,278.55l-409.24 286.53c-90.09,63.12 -185.91,10.21 -278.53,-49.1l-783.58 -501.74c-146.93,60.54 -299.37,112.42 -456.98,154.65 -157.61,42.23 -315.57,73.55 -473.09,94.58l-427.71 826.28c-50.57,97.69 -107.1,191.39 -216.67,181.81l-497.68 -43.55c-109.59,-9.56 -148.97,-111.69 -181.8,-216.66l-277.79 -888.15c-307.61,-97.56 -600.79,-234.67 -871.92,-407.09l-859.48 358.34c-101.53,42.34 -205.07,77.78 -282.85,0l-353.26 -353.26c-77.79,-77.77 -42.32,-181.32 0.01,-282.84l357.95 -858.55c-169.48,-266.51 -307.24,-558.6 -406.25,-872.71l-888.6 -277.92c-104.98,-32.84 -207.08,-72.22 -216.67,-181.81l-43.54 -497.68c-9.59,-109.58 84.14,-166.1 181.81,-216.66l825.74 -427.45c42.71,-321.77 127.49,-634.22 250.04,-929.92l-502 -783.98c-59.32,-92.65 -112.22,-188.44 -49.12,-278.55l286.54 -409.24c63.1,-90.1 171.22,-73.16 278.55,-49.1l907.89 203.47c234.63,-215.09 498.85,-401.74 788.8,-552.52l119.28 -922.51c14.11,-109.1 35.17,-216.48 141.42,-244.95l482.56 -129.3c106.25,-28.47 178.19,54.01 244.95,141.42l564.55 739.27z"/>
  <path class="fil1" d="M5855.26 7818.65c0,20.94 -6.61,39.67 -19.83,56.2 -12.13,16.53 -34.17,29.76 -66.12,40.78 -30.86,9.92 -72.74,18.73 -123.43,24.24 -51.79,5.51 -117.91,7.72 -197.26,7.72 -79.34,0 -145.46,-2.21 -197.26,-7.72 -50.69,-5.51 -92.57,-14.32 -123.42,-24.24 -31.96,-11.02 -54,-24.25 -66.13,-40.78 -13.22,-16.53 -19.83,-35.26 -19.83,-56.2l0 -2876.25c0,-20.94 6.61,-39.67 19.83,-56.2 12.13,-16.53 34.17,-30.86 66.13,-41.88 30.85,-12.12 72.73,-20.94 123.42,-27.55 51.8,-6.61 117.92,-9.92 197.26,-9.92 79.35,0 145.47,3.31 197.26,9.92 50.69,6.61 92.57,15.43 123.43,27.55 31.95,11.02 53.99,25.35 66.12,41.88 13.22,16.53 19.83,35.26 19.83,56.2l0 2876.25zm66.12 -3861.45c0,164.2 -33.06,276.61 -100.28,339.42 -67.22,62.82 -190.65,93.67 -372.48,93.67 -182.93,0 -307.46,-29.75 -370.28,-90.36 -63.91,-60.61 -95.87,-169.71 -95.87,-326.2 0,-164.2 33.06,-277.7 99.18,-341.62 65.02,-62.82 189.55,-94.77 373.58,-94.77 180.73,0 304.16,30.85 369.18,92.56 65.02,60.62 96.97,169.71 96.97,327.3zm2774.87 3045.96c0,163.1 -30.85,307.46 -92.57,433.09 -60.61,124.53 -147.66,228.12 -260.07,312.97 -112.41,83.76 -244.65,146.57 -397.83,188.45 -153.18,41.87 -318.48,62.81 -497,62.81 -108,0 -211.59,-7.71 -309.67,-24.24 -98.08,-16.53 -185.14,-37.47 -263.38,-62.82 -77.14,-24.24 -142.16,-49.59 -193.95,-76.03 -51.8,-26.45 -89.27,-50.7 -112.41,-73.84 -24.24,-23.14 -42.98,-58.41 -55.1,-106.89 -13.22,-47.39 -19.84,-119.02 -19.84,-213.8 0,-61.71 2.21,-111.3 6.62,-148.77 4.4,-37.47 11.02,-68.32 18.73,-90.36 8.82,-22.04 19.84,-37.47 33.06,-45.18 12.12,-7.72 28.65,-11.02 48.49,-11.02 23.14,0 58.41,13.22 104.69,40.77 46.29,27.55 103.59,57.3 173.02,89.26 68.32,33.06 148.77,63.92 240.24,91.47 91.46,28.65 196.15,42.98 311.86,42.98 72.74,0 138.86,-7.72 195.06,-23.14 57.31,-14.33 106.9,-36.37 148.77,-65.02 41.88,-27.55 73.84,-62.82 95.88,-106.9 20.94,-42.98 31.96,-92.57 31.96,-148.77 0,-65.02 -19.84,-120.12 -59.51,-166.4 -40.78,-46.29 -93.67,-87.06 -158.69,-121.22 -66.12,-34.17 -141.06,-66.12 -223.71,-96.98 -82.65,-29.76 -168.61,-62.82 -255.67,-100.28 -87.06,-36.37 -173.01,-78.25 -255.66,-125.63 -82.66,-47.39 -157.59,-104.69 -223.71,-174.12 -65.02,-68.33 -117.92,-152.08 -158.69,-247.95 -39.68,-96.98 -59.51,-213.79 -59.51,-349.34 0,-137.75 27.55,-263.38 81.55,-379.09 54,-114.61 131.14,-213.79 232.52,-295.34 102.49,-81.55 225.91,-145.47 371.38,-190.65 146.57,-45.18 309.67,-67.22 491.5,-67.22 91.46,0 178.52,6.61 264.48,18.73 84.85,13.22 163.1,29.76 231.42,48.49 69.43,19.84 127.84,39.67 175.22,62.81 47.39,22.04 81.55,41.88 102.49,57.31 20.94,16.53 35.26,31.96 44.08,48.49 7.71,16.53 14.33,35.26 18.73,58.4 4.41,22.04 8.82,50.7 12.13,83.76 3.3,33.06 4.4,74.93 4.4,124.52 0,58.41 -1.1,105.8 -4.4,142.16 -3.31,36.37 -8.82,66.12 -16.53,87.06 -7.72,22.04 -17.64,36.37 -30.86,44.08 -13.22,7.72 -28.65,11.02 -45.18,11.02 -19.84,0 -50.7,-11.02 -91.47,-34.16 -40.77,-22.04 -92.57,-46.28 -154.28,-71.63 -61.71,-25.35 -133.34,-49.59 -213.79,-71.63 -81.55,-23.14 -174.12,-34.16 -277.71,-34.16 -73.83,0 -137.75,7.71 -191.75,22.04 -54,15.43 -98.08,37.47 -133.34,65.02 -34.16,27.55 -60.61,60.61 -77.14,98.07 -17.64,37.47 -26.45,78.25 -26.45,120.12 0,67.23 20.94,123.43 61.71,168.61 40.78,45.18 94.77,84.86 162,119.02 66.12,34.16 143.26,67.22 228.11,96.98 84.86,29.75 171.92,62.81 258.98,98.07 87.06,35.27 174.11,77.15 258.97,124.53 84.85,47.39 161.99,105.8 228.12,174.12 67.22,69.43 121.22,150.98 161.99,246.85 40.78,95.88 61.71,209.38 61.71,340.52z"/>
  <path class="fil2" d="M16169.26 7887.55c0,76.43 -2.61,139.48 -9.39,191.75 -6.61,50.96 -16.35,92.43 -29.5,123.37 -13.65,32.06 -29.76,54.65 -49.62,69.73 -19.01,14.42 -41.59,21.46 -64.37,21.46l-2550.51 0c-85.8,0 -158.25,-25.49 -217.24,-76.44 -58.99,-50.94 -88.51,-134.09 -88.51,-249.42l0 -4433.24c0,-115.32 29.52,-198.47 88.51,-249.42 58.99,-50.94 131.42,-76.43 217.24,-76.43l2538.45 0c22.79,0 44.5,6.39 63.02,20.12 17.66,13.07 34.35,35.88 46.94,68.39 12.87,33.2 22.89,75.07 29.5,126.04 6.78,52.27 9.38,116.67 9.38,195.78 0,73.76 -2.6,135.48 -9.38,187.74 -6.61,50.97 -16.35,92.43 -29.5,123.37 -13.64,32.06 -29.25,55.32 -46.94,69.73 -18.48,15.07 -40.25,21.46 -63.02,21.46l-1814.33 0 0 1239.05 1528.7 0c24.14,0 45.35,7.04 64.37,21.46 19.85,15.07 35.97,36.32 49.61,67.04 13.15,29.61 22.73,69.77 29.51,122.03 6.6,50.97 9.38,112.65 9.38,185.05 0,76.44 -2.69,139.47 -9.38,189.08 -6.69,49.6 -16.36,89.74 -29.51,119.35 -13.64,30.72 -30.01,51.52 -49.61,64.37 -19.29,12.63 -40.25,20.11 -64.37,20.11l-1528.7 0 0 1432.15 1826.39 0c24.15,0 45.37,7.03 64.37,21.45 19.88,15.07 35.97,37.68 49.62,69.74 13.15,30.94 22.89,72.4 29.5,123.36 6.78,52.28 9.39,115.33 9.39,191.77zm7042.11 -4.02c-93.87,87.15 -186.5,162.13 -274.9,225.28 -89.93,64.24 -178.35,116.66 -266.86,158.23 -89.83,40.23 -181.02,69.73 -276.23,88.51 -93.87,17.43 -193.1,26.81 -297.7,26.81 -257.46,0 -476.04,-52.29 -657.07,-155.55 -179.69,-103.26 -327.19,-242.71 -441.18,-418.38 -113.98,-174.32 -197.12,-379.5 -249.41,-614.16 -52.31,-234.68 -79.12,-481.42 -79.12,-740.22 0,-311.1 33.52,-591.37 101.91,-840.79 68.39,-248.07 167.62,-459.95 299.03,-635.62 131.42,-175.67 292.34,-309.76 482.75,-404.96 191.76,-93.87 413.02,-140.81 665.12,-140.81 96.55,0 189.08,9.38 278.92,29.51 88.51,20.11 177.01,53.63 266.85,101.9 88.5,48.28 181.04,111.31 277.59,189.08 95.21,76.44 199.8,171.64 315.12,284.29l0 -382.17c0,-26.83 8.05,-49.62 22.8,-69.74 13.41,-20.11 37.54,-36.21 69.73,-49.61 33.52,-12.08 75.09,-22.79 127.39,-29.51 52.3,-6.7 120.69,-9.38 205.17,-9.38 77.77,0 143.48,2.68 197.12,9.38 53.64,6.72 96.55,17.43 128.73,29.51 30.84,13.4 53.64,29.5 65.72,49.61 13.4,20.12 20.11,42.91 20.11,68.39l0 2709.76c-10.2,645.55 28.17,1288.99 -442.52,1767.74 -158.24,159.57 -354.02,278.91 -587.35,356.7 -234.67,79.1 -506.89,118 -819.33,118 -172.99,0 -335.24,-12.07 -486.77,-34.87 -151.53,-22.79 -285.63,-49.62 -403.63,-80.45 -118.01,-30.84 -214.56,-61.69 -291,-93.87 -76.42,-32.19 -122.02,-57.67 -139.46,-75.1 -17.43,-18.78 -30.84,-37.54 -41.56,-57.66 -10.73,-18.77 -17.43,-42.91 -22.79,-72.41 -5.37,-28.16 -9.4,-63.03 -12.08,-103.25 -2.68,-40.23 -4.02,-89.85 -4.02,-147.51 0,-64.37 1.34,-119.35 5.37,-162.26 4.01,-42.91 12.06,-76.43 21.44,-99.23 10.74,-24.14 24.15,-40.23 40.24,-49.62 14.75,-9.38 34.87,-13.4 59,-13.4 38.89,0 89.85,12.06 152.87,37.54 63.02,25.48 142.14,52.3 237.36,83.14 95.2,30.84 209.18,57.67 339.25,83.14 131.43,25.47 282.95,37.55 455.94,37.55 170.3,0 315.13,-22.79 437.16,-67.05 122.02,-44.25 221.26,-108.62 299.03,-193.1 76.43,-84.48 132.32,-187.87 167.62,-308.43 35.76,-122.13 53.64,-256.12 53.64,-404.96zm0 -2065.1c-140.81,-178.34 -277.58,-313.78 -406.31,-409 -130.08,-93.86 -265.52,-140.79 -407.66,-140.79 -127.39,0 -238.69,32.18 -331.22,96.55 -93.86,64.36 -167.62,148.84 -223.94,256.12 -56.32,108.62 -99.23,227.96 -126.05,359.38 -28.16,132.75 -41.57,268.19 -41.57,406.32 0,147.5 12.07,290.98 34.86,430.44 24.15,139.46 63.03,264.17 116.67,371.45 53.64,107.28 124.71,193.1 214.56,258.81 88.5,65.7 201.14,97.89 337.92,97.89 67.04,0 134.09,-9.39 198.46,-29.5 64.36,-20.12 128.73,-50.96 195.79,-96.55 67.04,-44.25 135.43,-101.92 206.5,-174.33 71.07,-72.41 148.85,-159.57 231.99,-264.17l0 -1162.62zm-3115.08 2342.67c0,25.48 -8.05,48.27 -24.13,68.39 -14.76,20.11 -41.58,36.21 -77.79,49.62 -37.54,12.07 -88.5,22.8 -152.87,29.5 -64.36,6.71 -143.48,9.38 -237.34,9.38 -97.9,0 -178.35,-2.67 -242.72,-9.38 -64.36,-6.7 -115.32,-17.43 -152.87,-29.5 -36.2,-13.41 -63.03,-29.51 -77.78,-49.62 -16.08,-20.12 -24.13,-42.91 -24.13,-68.39l0 -1999.38c0,-170.31 -12.08,-304.4 -37.56,-400.95 -24.13,-97.89 -60.34,-181.03 -107.27,-249.42 -46.93,-69.73 -108.62,-123.37 -182.38,-162.26 -75.08,-37.54 -160.9,-56.32 -260.14,-56.32 -126.04,0 -252.1,45.59 -380.83,138.12 -127.39,91.19 -261.49,225.28 -399.61,399.61l0 2330.6c0,25.48 -8.05,48.27 -24.13,68.39 -14.76,20.11 -41.58,36.21 -80.47,49.62 -37.54,12.07 -88.5,22.8 -150.19,29.5 -63.02,6.71 -143.48,9.38 -240.03,9.38 -96.55,0 -177,-2.67 -240.03,-9.38 -61.68,-6.7 -112.64,-17.43 -150.19,-29.5 -38.88,-13.41 -65.71,-29.51 -80.46,-49.62 -16.09,-20.12 -24.13,-42.91 -24.13,-68.39l0 -3507.97c0,-25.48 6.7,-48.27 20.11,-68.39 12.07,-20.11 36.2,-36.21 69.73,-49.61 34.87,-12.08 77.78,-22.79 131.42,-29.51 53.63,-6.7 122.03,-9.38 202.48,-9.38 84.49,0 152.87,2.68 207.85,9.38 54.98,6.72 97.9,17.43 128.73,29.51 29.51,13.4 50.96,29.5 64.37,49.61 13.41,20.12 20.11,42.91 20.11,68.39l0 404.98c193.1,-209.2 390.23,-364.75 591.37,-469.35 199.81,-104.59 408.99,-156.89 626.24,-156.89 238.69,0 439.83,38.89 603.43,118.01 163.6,77.77 295.01,185.05 396.92,320.49 100.57,134.1 172.99,292.33 217.25,473.36 44.24,181.03 67.04,398.26 67.04,651.71l0 2165.66zm5802.84 0c0,25.33 -8.5,47.99 -24.13,68.39 -15.14,19.75 -41.48,36.65 -80.47,49.62 -37.37,12.43 -88.53,22.9 -150.19,29.5 -62.98,6.74 -143.47,9.38 -240.02,9.38 -96.55,0 -177.05,-2.64 -240.04,-9.38 -61.65,-6.6 -112.81,-17.07 -150.19,-29.5 -38.98,-12.97 -65.32,-29.87 -80.46,-49.62 -15.63,-20.41 -24.13,-42.91 -24.13,-68.39l0 -3499.92c0,-25.48 8.5,-47.98 24.13,-68.39 15.14,-19.76 41.9,-36.77 80.46,-50.96 37.83,-13.91 88.53,-25.6 150.19,-33.52 62.98,-8.1 143.49,-12.07 240.04,-12.07 96.55,0 177.06,3.97 240.02,12.07 61.67,7.92 112.38,19.61 150.19,33.52 38.57,14.19 65.33,31.2 80.47,50.96 15.63,20.4 24.13,42.99 24.13,68.39l0 3499.92zm80.46 -4698.75c0,199.8 -40.27,336.61 -122.03,413.02 -81.76,76.39 -231.98,113.98 -453.24,113.98 -222.61,0 -373.85,-36.57 -450.57,-109.95 -77.42,-74.05 -116.67,-206.52 -116.67,-396.93 0,-199.8 40.26,-337.97 120.7,-415.7 79.06,-76.4 230.64,-115.33 454.58,-115.33 219.92,0 369.8,37.94 449.23,112.65 78.75,74.07 118,206.5 118,398.26zm4071.71 4698.75c0,25.33 -8.5,47.99 -24.13,68.39 -15.14,19.75 -41.33,37.05 -77.78,49.62 -37.24,12.84 -88.52,22.8 -152.88,29.5 -64.36,6.7 -143.47,9.38 -237.34,9.38 -97.9,0 -178.38,-2.72 -242.72,-9.38 -64.32,-6.67 -115.62,-16.66 -152.86,-29.5 -36.46,-12.57 -62.65,-29.87 -77.79,-49.62 -15.62,-20.41 -24.13,-42.91 -24.13,-68.39l0 -1999.38c0,-170.31 -12.9,-304.24 -37.55,-400.95 -24.9,-97.65 -60.69,-180.86 -107.27,-249.42 -47.21,-69.48 -108.25,-124.2 -182.38,-162.26 -74.65,-38.31 -160.91,-56.32 -260.14,-56.32 -126.05,0 -252.05,45.75 -380.84,138.12 -127.26,91.27 -261.49,225.28 -399.61,399.61l0 2330.6c0,25.4 -8.5,47.99 -24.13,68.39 -15.14,19.75 -41.48,36.65 -80.47,49.62 -37.37,12.43 -88.53,22.9 -150.19,29.5 -62.98,6.74 -143.47,9.38 -240.02,9.38 -96.55,0 -177.05,-2.64 -240.04,-9.38 -61.65,-6.6 -112.81,-17.07 -150.19,-29.5 -38.98,-12.97 -65.32,-29.87 -80.46,-49.62 -15.64,-20.41 -24.13,-42.91 -24.13,-68.39l0 -3507.97c0,-25.48 7.21,-48 20.12,-68.39 12.51,-19.78 35.92,-37.04 69.72,-49.61 34.55,-12.85 77.82,-22.84 131.42,-29.51 53.59,-6.67 122.03,-9.38 202.49,-9.38 84.48,0 152.91,2.71 207.84,9.38 54.95,6.67 98.27,16.66 128.73,29.51 29.83,12.57 50.96,29.5 64.37,49.61 13.42,20.12 20.12,42.99 20.12,68.39l0 404.98c193.1,-209.2 390.4,-364.52 591.36,-469.35 199.91,-104.28 409,-156.89 626.24,-156.89 238.69,0 439.61,39.48 603.43,118.01 163.3,78.28 295.15,185.01 396.93,320.49 100.63,133.98 172.99,292.33 217.24,473.36 44.24,181.02 67.04,398.34 67.04,651.71l0 2165.66zm4023.43 -1854.56c0,120.54 -26.86,209.23 -80.45,266.85 -53.61,57.63 -127.47,87.17 -222.6,87.17l-2134.82 0c0,148.84 17.9,282.86 53.64,404.97 35.26,120.53 90.85,224.31 167.62,308.42 77.37,84.78 177.04,148.89 299.03,193.1 121.99,44.22 266.85,67.06 437.16,67.06 172.98,0 324.57,-11.99 455.93,-37.56 130.06,-25.31 244.09,-52.34 339.26,-83.14 95.17,-30.81 174.33,-57.66 237.35,-83.13 63.03,-25.48 113.99,-37.55 152.88,-37.55 24.13,0 44.1,4.36 58.99,13.4 15.88,9.66 29.87,25.37 40.24,49.62 9.68,22.63 17.46,56.37 21.45,99.24 3.98,42.87 5.36,97.88 5.36,162.25 0,57.66 -1.33,107.28 -4.01,147.51 -2.69,40.23 -6.88,75.1 -12.08,103.25 -5.45,29.44 -12.39,53.52 -22.8,72.42 -10.97,19.92 -23.83,39.24 -41.56,57.66 -17.06,17.72 -63.04,42.92 -139.46,75.1 -76.43,32.18 -173.02,63.06 -291,93.86 -117.95,30.8 -252.1,57.66 -403.63,80.46 -151.52,22.79 -313.78,34.86 -486.76,34.86 -312.45,0 -584.57,-39.33 -819.34,-118 -233.15,-78.14 -429.49,-196.82 -587.35,-356.7 -157.19,-159.2 -274.39,-361.84 -351.32,-604.78 -77.2,-243.76 -115.33,-529.67 -115.33,-856.88 0,-311.1 40.68,-591.27 122.03,-842.12 80.83,-249.25 198.88,-461.01 354.02,-635.62 154.54,-173.95 342.12,-306.78 563.2,-398.27 222.7,-92.15 472.02,-138.12 749.6,-138.12 293.67,0 544.14,43.76 752.29,130.08 208.81,86.59 379.91,206.21 513.59,359.38 133.09,152.49 232.01,335.28 295,544.43 62.99,209.16 93.87,437.23 93.87,683.89l0 156.89zm-957.45 -281.6c8.05,-277.58 -48.63,-495.96 -167.62,-654.39 -119.64,-159.3 -303.05,-238.69 -552.47,-238.69 -126.06,0 -235.91,24.45 -328.54,71.07 -93.7,47.17 -171.67,110 -233.33,190.42 -61.64,80.42 -108.24,174.48 -140.81,282.94 -33.06,110.04 -52.29,225.29 -57.65,348.65l1480.42 0z"/>
  <path class="fil3" d="M27233 3122.67c0,18.49 -1.82,31.78 -5.74,39.85 -3.9,8.08 -9.63,12.24 -17.18,12.24l-298.96 0 0 253.13 280.99 0c3.13,0 5.99,1.04 9.12,3.12 3.12,2.09 5.46,4.95 7.29,9.12 1.82,4.16 3.13,9.37 4.16,15.62 1.05,6.26 1.57,14.32 1.57,23.96 0,9.38 -0.52,17.19 -1.57,23.7 -1.03,6.77 -2.34,11.98 -4.16,15.89 -1.83,3.64 -4.17,6.51 -7.29,8.59 -3.13,2.08 -5.99,3.12 -9.12,3.12l-280.99 0 0 327.1c0,4.17 -1.05,7.55 -3.12,10.42 -2.09,2.6 -5.47,4.95 -10.16,6.76 -4.95,1.83 -11.46,3.13 -19.8,4.17 -8.59,1.04 -19.01,1.56 -31.77,1.56 -12.24,0 -22.4,-0.52 -30.99,-1.56 -8.33,-1.04 -15.1,-2.34 -20.05,-4.17 -5.21,-1.81 -8.59,-4.16 -10.68,-6.76 -2.09,-2.87 -3.12,-6.25 -3.12,-10.42l0 -740.64c0,-16.94 4.69,-28.91 13.8,-36.2 9.11,-7.55 18.75,-11.21 28.9,-11.21l385.95 0c7.55,0 13.28,4.18 17.18,12.51 3.92,8.59 5.74,21.88 5.74,40.1zm691.15 739.35c0,3.38 -1.14,6.48 -3.12,8.59 -2.13,2.26 -5.74,4.22 -10.94,5.73 -5.44,1.57 -13.05,2.88 -22.4,3.64 -9.35,0.75 -21.35,1.04 -35.68,1.04 -13.8,0 -25.02,-0.3 -33.33,-1.04 -8.56,-0.77 -15.4,-2.32 -20.83,-4.69 -5.2,-2.26 -9.25,-5.33 -11.71,-8.85 -2.44,-3.46 -4.28,-8.2 -6.26,-13.8l-65.62 -184.9c-7.6,-21.43 -16.18,-40.65 -25.26,-58.07 -9.1,-17.42 -19.82,-32.07 -32.04,-44.02 -12.21,-11.95 -26.54,-21.22 -43.22,-27.86 -16.6,-6.6 -38.08,-9.9 -64.6,-9.9l-78.64 0 0 330.99c0,3.61 -1,6.85 -3.12,9.65 -1.99,2.63 -5.51,4.93 -10.68,6.76 -4.94,1.76 -11.75,3.16 -19.79,4.17 -8.06,1.01 -18.5,1.56 -31.25,1.56 -12.25,0 -22.44,-0.53 -30.99,-1.56 -8.31,-0.99 -15.12,-2.41 -20.06,-4.17 -5.16,-1.83 -8.68,-4.14 -10.68,-6.76 -2.13,-2.8 -3.12,-5.99 -3.12,-9.65l0 -741.41c0,-16.94 4.77,-28.86 13.8,-36.2 9.15,-7.45 18.75,-11.21 28.91,-11.21l215.37 0c48.96,0 90.13,4.98 123.96,14.6 33.82,9.61 62.53,23.45 85.68,41.14 23.16,17.68 40.86,39.89 53.13,66.14 12.16,26.04 18.22,55.73 18.22,88.81 0,26.57 -3.79,50.77 -11.2,72.65 -7.38,21.82 -17.73,41.7 -31.25,59.13 -13.52,17.41 -30.03,32.74 -49.22,45.31 -19.3,12.64 -41.41,23.17 -66.41,31.51 13.81,5.46 26.44,12.37 38.03,20.83 11.54,8.42 21.82,18.84 31.25,30.99 9.53,12.28 18.46,26.62 26.82,42.71 8.52,16.41 17.2,34.6 25,54.95l68.24 178.13c5.08,13.27 8.71,22.92 10.41,29.43 1.63,6.2 2.6,11.46 2.6,15.63zm-180.21 -566.95c0,-17.71 -2.75,-34.36 -8.08,-49.73 -5.3,-15.31 -14.09,-28.68 -26.29,-39.59 -12.22,-10.9 -28.18,-19.73 -47.14,-26.04 -19.27,-6.41 -45.1,-9.64 -77.87,-9.64l-114.06 0 0 259.38 108.85 0c31.52,0 57.3,-3.24 77.35,-9.64 19.74,-6.3 36.23,-15.64 48.96,-27.6 12.74,-11.95 22.36,-26.35 28.65,-42.45 6.41,-16.41 9.63,-34.63 9.63,-54.69zm1020.09 535.43c4.13,10.89 5.77,20.35 6.51,26.83 0.76,6.73 -0.95,11.88 -4.95,15.36 -4.02,3.49 -10.97,5.77 -20.57,6.77 -9.61,1.01 -22.91,1.56 -39.85,1.56 -16.67,0 -29.97,-0.29 -39.32,-1.04 -9.35,-0.75 -16.69,-2.14 -21.62,-3.64 -5.16,-1.57 -8.78,-3.73 -10.67,-6.78 -1.97,-3.14 -3.88,-7.04 -5.47,-11.45l-66.41 -181.77 -341.67 0 -62.25 180.21c-1.56,4.56 -4.53,8.29 -7.03,11.46 -2.38,3.02 -6.31,5.69 -10.93,7.54 -4.95,1.99 -12.02,3.69 -21.1,4.43 -9.34,0.76 -21.09,1.04 -35.41,1.04 -14.85,0 -26.6,-0.54 -35.68,-1.82 -8.82,-1.26 -15.2,-3.61 -18.75,-7.29 -3.42,-3.56 -4.93,-8.88 -4.44,-16.15 0.48,-7 2.76,-15.82 6.78,-26.56l275.53 -737c2.11,-5.62 4.46,-10.18 7.55,-13.8 3.1,-3.61 7.6,-6.25 13.8,-8.07 5.97,-1.76 14.07,-3.13 23.96,-3.91 9.9,-0.78 22.39,-1.04 37.76,-1.04 12.77,0 23.47,0.03 32.56,0.26 8.82,0.23 16.44,0.81 22.39,1.56 5.96,0.76 11.51,1.82 16.14,3.13 4.42,1.23 8.12,2.9 10.94,4.94 2.83,2.06 5.3,4.68 7.3,7.56 2.11,3.05 3.77,6.89 5.21,10.68l279.69 736.99zm-375.01 -639.08l-1.56 0 -133.08 383.35 273.71 0 -139.07 -383.35zm1414.19 667.46c0,3.53 -0.72,6.83 -2.6,9.65 -1.75,2.63 -5.26,4.93 -10.16,6.76 -4.67,1.75 -11.24,3.14 -19.53,4.17 -8.05,0.99 -17.97,1.56 -29.68,1.56 -13.03,0 -23.48,-0.57 -31.52,-1.56 -8.29,-1.03 -14.61,-2.37 -19.27,-4.17 -4.65,-1.78 -7.91,-4.15 -9.63,-6.76 -1.86,-2.8 -2.61,-5.99 -2.61,-9.65l0 -677.35 -1.57 0 -284.11 681.27c-2.4,5.78 -7.62,10.59 -16.41,13.54 -8.85,2.97 -23.69,4.68 -44.01,4.68 -10.67,0 -19.57,-0.29 -26.56,-1.04 -7.01,-0.75 -13.02,-2.25 -17.45,-3.64 -4.62,-1.43 -8.04,-3.48 -10.42,-5.73 -2.25,-2.11 -4.53,-4.78 -5.73,-7.81l-273.44 -681.27 -1.56 0 0 677.35c0,3.59 -0.75,6.85 -2.61,9.65 -1.72,2.61 -4.98,4.98 -9.64,6.76 -4.65,1.8 -10.97,3.14 -19.27,4.17 -8.03,0.99 -18.48,1.56 -31.25,1.56 -13.01,0 -23.2,-0.54 -31.25,-1.56 -7.78,-0.99 -14.09,-2.37 -18.75,-4.17 -4.65,-1.78 -7.88,-4.13 -9.63,-6.76 -1.88,-2.82 -2.6,-5.99 -2.6,-9.65l0 -738.54c0,-17.2 4.95,-29.96 14.58,-38.03 9.64,-8.07 20.58,-12.25 33.07,-12.25l82.82 0c15.62,0 29.16,1.7 40.36,4.7 10.88,2.92 20.93,7.76 29.17,14.32 8.36,6.65 15.75,15.09 21.88,25.26 6.05,10.08 10.32,22.53 15.88,35.94l226.31 546.62 3.12 0 233.08 -543.5c6.53,-15.25 12.54,-28.41 18.75,-39.06 6.22,-10.64 13.77,-19.37 22.14,-26.04 8.23,-6.55 17.74,-11.23 28.12,-14.06 10.38,-2.84 22.66,-4.18 36.98,-4.18l78.13 0c12.76,0 23.96,4.18 33.07,12.25 9.11,8.07 13.8,20.9 13.8,38.03l0 738.54zm620.82 -34.11c0,9.11 -0.59,16.98 -1.56,23.45 -1,6.7 -2.35,12.04 -4.17,16.39 -1.72,4.13 -4.18,7.42 -6.77,9.13 -2.77,1.81 -5.84,2.6 -8.85,2.6l-409.39 0c-10.04,0 -19.78,-3.78 -28.9,-11.2 -8.99,-7.31 -13.8,-19.27 -13.8,-36.2l0 -711.47c0,-16.94 4.8,-28.89 13.8,-36.2 9.11,-7.42 18.75,-11.21 28.9,-11.21l403.92 0c3.65,0 6.87,0.79 9.63,2.61 2.59,1.72 4.96,4.77 6.78,8.86 1.72,3.87 3.13,9.37 4.16,16.14 1.03,6.78 1.57,14.85 1.57,23.96 0,9.11 -0.56,16.73 -1.57,23.18 -0.96,6.19 -2.34,11.28 -4.16,15.11 -1.72,3.61 -4.24,6.79 -6.78,8.59 -2.82,2 -6.09,3.12 -9.63,3.12l-316.93 0 0 235.95 273.18 0c3.64,0 6.88,0.77 9.63,2.6 2.59,1.7 5.38,4.69 7.3,8.85 1.87,4.07 3.42,9.45 4.17,16.15 0.71,6.46 1.04,14.58 1.04,24.22 0,8.86 -0.3,16.21 -1.04,22.66 -0.71,6.2 -2.3,11.56 -4.17,15.62 -1.92,4.17 -4.72,7.14 -7.3,8.86 -2.76,1.82 -6.1,2.61 -9.63,2.61l-273.18 0 0 265.62 322.4 0c3.13,0 6.08,0.78 8.85,2.61 2.59,1.7 4.96,4.77 6.77,8.85 1.73,3.88 3.2,9.17 4.17,15.37 1,6.44 1.56,14.06 1.56,23.17zm1019.97 28.65c-1.62,5.58 -5.01,10.48 -8.08,13.8 -3.31,3.58 -8.42,6.5 -14.84,8.33 -6.72,1.94 -15.11,3.65 -25.26,4.43 -10.16,0.78 -22.92,1.04 -38.02,1.04 -17.19,0 -31.59,-0.32 -42.45,-1.04 -10.62,-0.71 -19.31,-2.49 -25.52,-4.43 -5.9,-1.83 -10.52,-5 -13.28,-9.11 -2.57,-3.82 -4.79,-9.16 -6.52,-15.1l-170.31 -582.05 -2.35 0 -161.46 582.83c-1.65,5.97 -4.6,11.12 -7.55,14.84 -2.92,3.7 -7.92,6.73 -13.81,8.59 -5.96,1.9 -14.32,3.65 -24.47,4.43 -10.16,0.78 -22.92,1.04 -38.8,1.04 -16.15,0 -30.02,-0.32 -40.89,-1.04 -10.62,-0.71 -19.55,-2.57 -26.04,-4.43 -6.65,-1.91 -11.47,-4.81 -14.59,-8.33 -2.99,-3.38 -5.73,-8.34 -7.54,-14.32l-225.8 -737c-3.43,-11.25 -5.53,-20.39 -5.73,-27.34 -0.18,-6.71 1.9,-11.78 6.52,-15.1 4.62,-3.32 11.72,-5.47 21.35,-6.52 9.64,-1.04 22.66,-1.56 38.8,-1.56 15.37,0 27.16,0.31 35.68,1.04 8.28,0.7 14.93,2.11 19.79,3.91 4.64,1.71 8.14,4.24 9.9,7.29 1.75,3.06 3.5,7.15 4.95,12.25l185.95 652.09 1.55 0 179.7 -649.76c1.58,-5.72 3.49,-10.19 5.47,-13.53 1.79,-3.04 5.34,-5.91 9.89,-7.82 4.43,-1.86 11.01,-3.71 19.27,-4.43 8.27,-0.71 20.05,-1.04 34.64,-1.04 14.32,0 25.78,0.26 34.37,1.04 8.59,0.78 15.15,2.48 19.79,4.43 4.33,1.81 7.67,4.73 9.38,7.82 1.8,3.28 3.61,7.37 4.94,11.97l188.81 651.32 0.79 0 172.66 -649.76c1.52,-5.74 3.49,-10.19 5.47,-13.53 1.79,-3.04 5.56,-6.01 10.15,-7.82 4.91,-1.95 11.79,-3.72 20.32,-4.43 8.79,-0.72 20.57,-1.04 35.41,-1.04 14.85,0 26.38,0.57 34.9,1.56 8.27,0.96 14.45,3.39 17.96,6.78 3.65,3.52 4.74,8.91 4.43,15.62 -0.33,6.96 -1.87,16.35 -5.21,27.86l-214.32 736.22zm1040.75 -390.11c0,66.15 -8.28,125.63 -24.74,178.12 -16.48,52.58 -41.01,97.41 -73.17,134.12 -32.29,36.86 -72.45,65.48 -120.06,85.16 -47.83,19.77 -102.6,29.69 -164.85,29.69 -61.98,0 -116.16,-8.82 -162.5,-26.05 -46.49,-17.27 -85.49,-43.02 -116.67,-77.33 -31.19,-34.32 -54.64,-77.2 -69.79,-128.4 -15.18,-51.27 -22.92,-111.2 -22.92,-179.17 0,-64.06 8.52,-122.42 25.27,-174.48 16.71,-51.98 41.47,-96.42 73.95,-133.08 32.24,-36.38 72.72,-64.96 120.31,-84.63 47.84,-19.77 102.61,-29.69 164.6,-29.69 59.63,0 112.27,8.74 158.33,26.04 45.74,17.2 84.77,42.98 116.14,76.83 31.51,33.99 55.46,76.39 71.62,126.57 16.27,50.48 24.48,109.11 24.48,176.3zm-135.94 8.33c0,-44.79 -4.2,-86.01 -12.49,-123.44 -8.24,-37.18 -22.15,-69.91 -40.89,-97.39 -18.63,-27.33 -43.26,-48.71 -73.71,-64.08 -30.45,-15.36 -68.22,-22.91 -112.75,-22.91 -44.8,0 -82.31,8.24 -113.03,24.48 -30.6,16.18 -55.73,38.65 -74.74,66.93 -18.87,28.1 -33.15,61 -41.93,98.44 -8.79,37.43 -13.28,76.82 -13.28,117.97 0,46.36 4.25,88.86 12.24,126.83 8.02,38.2 21.69,71.16 40.62,98.95 18.95,27.8 43.88,49.19 74.23,64.07 30.45,14.93 68.23,22.65 112.76,22.65 44.79,0 82.56,-8.5 113.55,-25.26 30.86,-16.7 56,-39.42 75.26,-67.96 19.14,-28.36 33.37,-61.8 41.67,-99.75 8.23,-37.69 12.49,-77.6 12.49,-119.53zm854.23 390.38c0,3.38 -1.21,6.54 -3.12,8.59 -2.07,2.19 -5.82,4.29 -10.94,5.73 -5.38,1.5 -13.11,2.95 -22.4,3.64 -9.28,0.69 -21.35,1.04 -35.68,1.04 -13.8,0 -25.1,-0.36 -33.33,-1.04 -8.5,-0.7 -15.47,-2.39 -20.84,-4.69 -5.12,-2.2 -9.31,-5.4 -11.71,-8.85 -2.36,-3.4 -4.28,-8.2 -6.25,-13.8l-65.63 -184.9c-7.6,-21.43 -16.24,-40.72 -25.26,-58.07 -9.02,-17.36 -19.88,-32.13 -32.03,-44.02 -12.15,-11.88 -26.61,-21.3 -43.23,-27.86 -16.52,-6.54 -38.21,-9.9 -64.59,-9.9l-78.65 0 0 330.99c0,3.47 -1.06,6.92 -3.12,9.65 -1.92,2.57 -5.57,5 -10.67,6.76 -4.87,1.69 -11.82,3.23 -19.8,4.17 -7.98,0.95 -18.49,1.56 -31.25,1.56 -12.24,0 -22.49,-0.6 -30.99,-1.56 -8.24,-0.93 -15.19,-2.48 -20.05,-4.17 -5.11,-1.76 -8.75,-4.21 -10.68,-6.76 -2.06,-2.74 -3.12,-5.99 -3.12,-9.65l0 -741.41c0,-16.94 4.84,-28.92 13.8,-36.2 9.08,-7.37 18.74,-11.21 28.9,-11.21l215.38 0c48.95,0 90.2,5.05 123.95,14.6 33.76,9.54 62.6,23.53 85.68,41.14 23.09,17.62 40.94,39.95 53.13,66.14 12.1,25.96 18.23,55.73 18.23,88.81 0,26.57 -3.86,50.83 -11.2,72.65 -7.32,21.75 -17.8,41.77 -31.25,59.13 -13.45,17.35 -30.1,32.82 -49.22,45.31 -19.23,12.58 -41.41,23.17 -66.41,31.51 13.81,5.46 26.51,12.44 38.03,20.83 11.47,8.35 21.89,18.9 31.25,30.99 9.47,12.2 18.53,26.68 26.81,42.71 8.46,16.34 17.26,34.73 25,54.95l68.24 178.13c5.03,13.13 8.78,22.99 10.42,29.43 1.55,6.14 2.6,11.46 2.6,15.63zm-180.21 -566.95c0,-17.71 -2.82,-34.43 -8.08,-49.73 -5.23,-15.24 -14.15,-28.75 -26.29,-39.59 -12.16,-10.84 -28.25,-19.8 -47.14,-26.04 -19.2,-6.35 -45.24,-9.64 -77.87,-9.64l-114.07 0 0 259.38 108.86 0c31.51,0 57.37,-3.3 77.34,-9.64 19.68,-6.23 36.3,-15.72 48.96,-27.6 12.67,-11.88 22.43,-26.42 28.65,-42.45 6.35,-16.33 9.64,-34.63 9.64,-54.69zm877.68 563.04c0,3.64 -1.15,6.87 -3.13,9.9 -1.97,3.01 -5.55,5.6 -10.16,7.28 -4.83,1.76 -11.82,3.22 -20.82,4.17 -8.77,0.92 -19.8,1.56 -32.56,1.56 -14.06,0 -25.89,-0.35 -35.16,-1.04 -9,-0.67 -16.76,-2.21 -22.4,-3.9 -5.86,-1.76 -10.52,-4.27 -13.8,-7.3 -3.27,-3.02 -5.99,-6.72 -8.85,-10.67l-293.76 -403.92 0 403.92c0,3.96 -1.07,7.7 -3.12,10.42 -1.91,2.56 -5.58,5.01 -10.68,6.76 -4.85,1.68 -11.82,3.24 -19.79,4.17 -7.97,0.94 -18.49,1.56 -31.25,1.56 -12.24,0 -22.5,-0.61 -30.99,-1.56 -8.23,-0.92 -15.2,-2.49 -20.05,-4.17 -5.1,-1.75 -8.76,-4.22 -10.68,-6.76 -2.05,-2.73 -3.12,-5.99 -3.12,-9.65l0 -772.15c0,-3.12 1.07,-6.14 3.12,-8.85 1.92,-2.55 5.58,-5.02 10.68,-6.77 4.85,-1.68 11.82,-3.24 20.05,-4.17 8.49,-0.95 18.75,-1.56 30.99,-1.56 12.76,0 23.28,0.62 31.25,1.56 7.97,0.94 14.94,2.49 19.79,4.17 5.1,1.75 8.76,4.23 10.68,6.77 2.04,2.72 3.12,5.94 3.12,8.85l0 350.54 279.7 -349.75c3.25,-4.06 6.5,-7.8 10.16,-10.42 3.7,-2.64 8.68,-5.09 14.06,-6.77 5.61,-1.76 12.6,-3.23 20.57,-3.91 7.97,-0.68 18.23,-1.04 30.47,-1.04 13.28,0 24.32,0.62 32.81,1.56 8.5,0.94 15.45,2.5 20.05,4.17 4.82,1.76 8.51,4.22 10.68,6.77 2.31,2.71 3.39,5.99 3.39,9.64 0,3.12 -0.36,6.09 -1.04,8.85 -0.68,2.77 -2.13,6.13 -3.39,9.37 -1.39,3.58 -3.91,7.73 -6.51,11.99 -2.66,4.38 -6.67,9.6 -11.2,14.84l-262.24 303.13 285.68 384.12c2.92,3.92 5.63,8.15 7.55,11.46 2.04,3.5 3.91,7.19 5.21,10.42 1.35,3.32 2.94,6.37 3.65,8.85 0.64,2.26 1.04,4.95 1.04,7.56z"/>
  <rect class="fil4" x="-0" y="-0" width="36000" height="12000"/>
 </g>
</svg>
