<?xml version="1.0" encoding="UTF-8"?>
<!DOCTYPE svg PUBLIC "-//W3C//DTD SVG 1.1//EN" "http://www.w3.org/Graphics/SVG/1.1/DTD/svg11.dtd">
<!-- Creator: CorelDRAW 2018 (64-Bit) -->
<svg xmlns="http://www.w3.org/2000/svg" xml:space="preserve" width="360mm" height="120mm" version="1.1" style="shape-rendering:geometricPrecision; text-rendering:geometricPrecision; image-rendering:optimizeQuality; fill-rule:evenodd; clip-rule:evenodd"
viewBox="0 0 3600 1200"
 xmlns:xlink="http://www.w3.org/1999/xlink">
 <defs>
  <style type="text/css">
   <![CDATA[
    .fil4 {fill:none}
    .fil0 {fill:#00CCFF}
    .fil2 {fill:#00CCFF;fill-rule:nonzero}
    .fil3 {fill:#CCCCCC;fill-rule:nonzero}
    .fil1 {fill:white;fill-rule:nonzero}
   ]]>
  </style>
 </defs>
 <g id="Layer_x0020_1">
  <metadata id="CorelCorpID_0Corel-Layer"/>
  <path class="fil0" d="M644.696 225.192c32.652,-1.438 64.871,1.502 95.946,8.401l68.443 -63.006c8.093,-7.453 16.609,-14.324 26.578,-9.675l45.278 21.114c9.97,4.647 10.178,15.592 9.673,26.578l-4.275 92.998c25.396,19.482 48.365,42.297 68.148,68.03l92.886 -4.27c10.988,-0.506 21.93,-0.296 26.579,9.675l21.113 45.277c4.651,9.968 -2.226,18.486 -9.674,26.577l-63.038 68.478c7.135,32.17 9.829,64.374 8.473,95.942l73.887 56.426c8.743,6.675 16.989,13.869 14.141,24.494l-12.931 48.256c-2.843,10.625 -13.585,12.731 -24.493,14.142l-92.319 11.937c-14.869,28.499 -33.407,55.045 -55.182,78.879l20.346 90.781c2.405,10.735 4.099,21.546 -4.912,27.855l-40.924 28.653c-9.009,6.312 -18.591,1.021 -27.853,-4.91l-78.358 -50.174c-14.693,6.054 -29.937,11.242 -45.698,15.465 -15.761,4.223 -31.557,7.355 -47.309,9.458l-42.771 82.628c-5.057,9.769 -10.71,19.139 -21.667,18.181l-49.768 -4.355c-10.959,-0.956 -14.897,-11.169 -18.18,-21.666l-27.779 -88.815c-30.761,-9.756 -60.079,-23.467 -87.192,-40.709l-85.948 35.834c-10.153,4.234 -20.507,7.778 -28.285,0l-35.326 -35.326c-7.779,-7.777 -4.232,-18.132 0.001,-28.284l35.795 -85.855c-16.948,-26.651 -30.724,-55.86 -40.625,-87.271l-88.86 -27.792c-10.498,-3.284 -20.708,-7.222 -21.667,-18.181l-4.354 -49.768c-0.959,-10.958 8.414,-16.61 18.181,-21.666l82.574 -42.745c4.271,-32.177 12.749,-63.422 25.004,-92.992l-50.2 -78.398c-5.932,-9.265 -11.222,-18.844 -4.912,-27.855l28.654 -40.924c6.31,-9.01 17.122,-7.316 27.855,-4.91l90.789 20.347c23.463,-21.509 49.885,-40.174 78.88,-55.252l11.928 -92.251c1.411,-10.91 3.517,-21.648 14.142,-24.495l48.256 -12.93c10.625,-2.847 17.819,5.401 24.495,14.142l56.455 73.927z"/>
  <path class="fil1" d="M585.526 781.865c0,2.094 -0.661,3.967 -1.983,5.62 -1.213,1.653 -3.417,2.976 -6.612,4.078 -3.086,0.992 -7.274,1.873 -12.343,2.424 -5.179,0.551 -11.791,0.772 -19.726,0.772 -7.934,0 -14.546,-0.221 -19.726,-0.772 -5.069,-0.551 -9.257,-1.432 -12.342,-2.424 -3.196,-1.102 -5.4,-2.425 -6.613,-4.078 -1.322,-1.653 -1.983,-3.526 -1.983,-5.62l0 -287.625c0,-2.094 0.661,-3.967 1.983,-5.62 1.213,-1.653 3.417,-3.086 6.613,-4.188 3.085,-1.212 7.273,-2.094 12.342,-2.755 5.18,-0.661 11.792,-0.992 19.726,-0.992 7.935,0 14.547,0.331 19.726,0.992 5.069,0.661 9.257,1.543 12.343,2.755 3.195,1.102 5.399,2.535 6.612,4.188 1.322,1.653 1.983,3.526 1.983,5.62l0 287.625zm6.612 -386.145c0,16.42 -3.306,27.661 -10.028,33.942 -6.722,6.282 -19.065,9.367 -37.248,9.367 -18.293,0 -30.746,-2.975 -37.028,-9.036 -6.391,-6.061 -9.587,-16.971 -9.587,-32.62 0,-16.42 3.306,-27.77 9.918,-34.162 6.502,-6.282 18.955,-9.477 37.358,-9.477 18.073,0 30.416,3.085 36.918,9.256 6.502,6.062 9.697,16.971 9.697,32.73zm277.487 304.596c0,16.31 -3.085,30.746 -9.257,43.309 -6.061,12.453 -14.766,22.812 -26.007,31.297 -11.241,8.376 -24.465,14.657 -39.783,18.845 -15.318,4.187 -31.848,6.281 -49.7,6.281 -10.8,0 -21.159,-0.771 -30.967,-2.424 -9.808,-1.653 -18.514,-3.747 -26.338,-6.282 -7.714,-2.424 -14.216,-4.959 -19.395,-7.603 -5.18,-2.645 -8.927,-5.07 -11.241,-7.384 -2.424,-2.314 -4.298,-5.841 -5.51,-10.689 -1.322,-4.739 -1.984,-11.902 -1.984,-21.38 0,-6.171 0.221,-11.13 0.662,-14.877 0.44,-3.747 1.102,-6.832 1.873,-9.036 0.882,-2.204 1.984,-3.747 3.306,-4.518 1.212,-0.772 2.865,-1.102 4.849,-1.102 2.314,0 5.841,1.322 10.469,4.077 4.629,2.755 10.359,5.73 17.302,8.926 6.832,3.306 14.877,6.392 24.024,9.147 9.146,2.865 19.615,4.298 31.186,4.298 7.274,0 13.886,-0.772 19.506,-2.314 5.731,-1.433 10.69,-3.637 14.877,-6.502 4.188,-2.755 7.384,-6.282 9.588,-10.69 2.094,-4.298 3.196,-9.257 3.196,-14.877 0,-6.502 -1.984,-12.012 -5.951,-16.64 -4.078,-4.629 -9.367,-8.706 -15.869,-12.122 -6.612,-3.417 -14.106,-6.612 -22.371,-9.698 -8.265,-2.976 -16.861,-6.282 -25.567,-10.028 -8.706,-3.637 -17.301,-7.825 -25.566,-12.563 -8.266,-4.739 -15.759,-10.469 -22.371,-17.412 -6.502,-6.833 -11.792,-15.208 -15.869,-24.795 -3.968,-9.698 -5.951,-21.379 -5.951,-34.934 0,-13.775 2.755,-26.338 8.155,-37.909 5.4,-11.461 13.114,-21.379 23.252,-29.534 10.249,-8.155 22.591,-14.547 37.138,-19.065 14.657,-4.518 30.967,-6.722 49.15,-6.722 9.146,0 17.852,0.661 26.448,1.873 8.485,1.322 16.31,2.976 23.142,4.849 6.943,1.984 12.784,3.967 17.522,6.281 4.739,2.204 8.155,4.188 10.249,5.731 2.094,1.653 3.526,3.196 4.408,4.849 0.771,1.653 1.433,3.526 1.873,5.84 0.441,2.204 0.882,5.07 1.213,8.376 0.33,3.306 0.44,7.493 0.44,12.452 0,5.841 -0.11,10.58 -0.44,14.216 -0.331,3.637 -0.882,6.612 -1.653,8.706 -0.772,2.204 -1.764,3.637 -3.086,4.408 -1.322,0.772 -2.865,1.102 -4.518,1.102 -1.984,0 -5.07,-1.102 -9.147,-3.416 -4.077,-2.204 -9.257,-4.628 -15.428,-7.163 -6.171,-2.535 -13.334,-4.959 -21.379,-7.163 -8.155,-2.314 -17.412,-3.416 -27.771,-3.416 -7.383,0 -13.775,0.771 -19.175,2.204 -5.4,1.543 -9.808,3.747 -13.334,6.502 -3.416,2.755 -6.061,6.061 -7.714,9.807 -1.764,3.747 -2.645,7.825 -2.645,12.012 0,6.723 2.094,12.343 6.171,16.861 4.078,4.518 9.477,8.486 16.2,11.902 6.612,3.416 14.326,6.722 22.811,9.698 8.486,2.975 17.192,6.281 25.898,9.807 8.706,3.527 17.411,7.715 25.897,12.453 8.485,4.739 16.199,10.58 22.812,17.412 6.722,6.943 12.122,15.098 16.199,24.685 4.078,9.588 6.171,20.938 6.171,34.052z"/>
  <path class="fil2" d="M1616.926 788.755c0,7.643 -0.261,13.948 -0.939,19.175 -0.661,5.096 -1.635,9.243 -2.95,12.337 -1.365,3.206 -2.976,5.465 -4.962,6.973 -1.901,1.442 -4.159,2.146 -6.437,2.146l-255.051 0c-8.58,0 -15.825,-2.549 -21.724,-7.644 -5.899,-5.094 -8.851,-13.409 -8.851,-24.942l0 -443.324c0,-11.532 2.952,-19.847 8.851,-24.942 5.899,-5.094 13.142,-7.643 21.724,-7.643l253.845 0c2.279,0 4.45,0.639 6.302,2.012 1.766,1.307 3.435,3.588 4.694,6.839 1.287,3.32 2.289,7.507 2.95,12.604 0.678,5.227 0.938,11.667 0.938,19.578 0,7.376 -0.26,13.548 -0.938,18.774 -0.661,5.097 -1.635,9.243 -2.95,12.337 -1.364,3.206 -2.925,5.532 -4.694,6.973 -1.848,1.507 -4.025,2.146 -6.302,2.146l-181.433 0 0 123.905 152.87 0c2.414,0 4.535,0.704 6.437,2.146 1.985,1.507 3.597,3.632 4.961,6.704 1.315,2.961 2.273,6.977 2.951,12.203 0.66,5.097 0.938,11.265 0.938,18.505 0,7.644 -0.269,13.947 -0.938,18.908 -0.669,4.96 -1.636,8.974 -2.951,11.935 -1.364,3.072 -3.001,5.152 -4.961,6.437 -1.929,1.263 -4.025,2.011 -6.437,2.011l-152.87 0 0 143.215 182.639 0c2.415,0 4.537,0.703 6.437,2.145 1.988,1.507 3.597,3.768 4.962,6.974 1.315,3.094 2.289,7.24 2.95,12.336 0.678,5.228 0.939,11.533 0.939,19.177zm704.211 -0.402c-9.387,8.715 -18.65,16.213 -27.49,22.528 -8.993,6.424 -17.835,11.666 -26.686,15.823 -8.983,4.023 -18.102,6.973 -27.623,8.851 -9.387,1.743 -19.31,2.681 -29.77,2.681 -25.746,0 -47.604,-5.229 -65.707,-15.555 -17.969,-10.326 -32.719,-24.271 -44.118,-41.838 -11.398,-17.432 -19.712,-37.95 -24.941,-61.416 -5.231,-23.468 -7.912,-48.142 -7.912,-74.022 0,-31.11 3.352,-59.137 10.191,-84.079 6.839,-24.807 16.762,-45.995 29.903,-63.562 13.142,-17.567 29.234,-30.976 48.275,-40.496 19.176,-9.387 41.302,-14.081 66.512,-14.081 9.655,0 18.908,0.938 27.892,2.951 8.851,2.011 17.701,5.363 26.685,10.19 8.85,4.828 18.104,11.131 27.759,18.908 9.521,7.644 19.98,17.164 31.512,28.429l0 -38.217c0,-2.683 0.805,-4.962 2.28,-6.974 1.341,-2.011 3.754,-3.621 6.973,-4.961 3.352,-1.208 7.509,-2.279 12.739,-2.951 5.23,-0.67 12.069,-0.938 20.517,-0.938 7.777,0 14.348,0.268 19.712,0.938 5.364,0.672 9.655,1.743 12.873,2.951 3.084,1.34 5.364,2.95 6.572,4.961 1.34,2.012 2.011,4.291 2.011,6.839l0 270.976c-1.02,64.555 2.817,128.899 -44.252,176.774 -15.824,15.957 -35.402,27.891 -58.735,35.67 -23.467,7.91 -50.689,11.8 -81.933,11.8 -17.299,0 -33.524,-1.207 -48.677,-3.487 -15.153,-2.279 -28.563,-4.962 -40.363,-8.045 -11.801,-3.084 -21.456,-6.169 -29.1,-9.387 -7.642,-3.219 -12.202,-5.767 -13.946,-7.51 -1.743,-1.878 -3.084,-3.754 -4.156,-5.766 -1.073,-1.877 -1.743,-4.291 -2.279,-7.241 -0.537,-2.816 -0.94,-6.303 -1.208,-10.325 -0.268,-4.023 -0.402,-8.985 -0.402,-14.751 0,-6.437 0.134,-11.935 0.537,-16.226 0.401,-4.291 1.206,-7.643 2.144,-9.923 1.074,-2.414 2.415,-4.023 4.024,-4.962 1.475,-0.938 3.487,-1.34 5.9,-1.34 3.889,0 8.985,1.206 15.287,3.754 6.302,2.548 14.214,5.23 23.736,8.314 9.52,3.084 20.918,5.767 33.925,8.314 13.143,2.547 28.295,3.755 45.594,3.755 17.03,0 31.513,-2.279 43.716,-6.705 12.202,-4.425 22.126,-10.862 29.903,-19.31 7.643,-8.448 13.232,-18.787 16.762,-30.843 3.576,-12.213 5.364,-25.612 5.364,-40.496zm0 -206.51c-14.081,-17.834 -27.758,-31.378 -40.631,-40.9 -13.008,-9.386 -26.552,-14.079 -40.766,-14.079 -12.739,0 -23.869,3.218 -33.122,9.655 -9.386,6.436 -16.762,14.884 -22.394,25.612 -5.632,10.862 -9.923,22.796 -12.605,35.938 -2.816,13.275 -4.157,26.819 -4.157,40.632 0,14.75 1.207,29.098 3.486,43.044 2.415,13.946 6.303,26.417 11.667,37.145 5.364,10.728 12.471,19.31 21.456,25.881 8.85,6.57 20.114,9.789 33.792,9.789 6.704,0 13.409,-0.939 19.846,-2.95 6.436,-2.012 12.873,-5.096 19.579,-9.655 6.704,-4.425 13.543,-10.192 20.65,-17.433 7.107,-7.241 14.885,-15.957 23.199,-26.417l0 -116.262zm-311.508 234.267c0,2.548 -0.805,4.827 -2.413,6.839 -1.476,2.011 -4.158,3.621 -7.779,4.962 -3.754,1.207 -8.85,2.28 -15.287,2.95 -6.436,0.671 -14.348,0.938 -23.734,0.938 -9.79,0 -17.835,-0.267 -24.272,-0.938 -6.436,-0.67 -11.532,-1.743 -15.287,-2.95 -3.62,-1.341 -6.303,-2.951 -7.778,-4.962 -1.608,-2.012 -2.413,-4.291 -2.413,-6.839l0 -199.938c0,-17.031 -1.208,-30.44 -3.756,-40.095 -2.413,-9.789 -6.034,-18.103 -10.727,-24.942 -4.693,-6.973 -10.862,-12.337 -18.238,-16.226 -7.508,-3.754 -16.09,-5.632 -26.014,-5.632 -12.604,0 -25.21,4.559 -38.083,13.812 -12.739,9.119 -26.149,22.528 -39.961,39.961l0 233.06c0,2.548 -0.805,4.827 -2.413,6.839 -1.476,2.011 -4.158,3.621 -8.047,4.962 -3.754,1.207 -8.85,2.28 -15.019,2.95 -6.302,0.671 -14.348,0.938 -24.003,0.938 -9.655,0 -17.7,-0.267 -24.003,-0.938 -6.168,-0.67 -11.264,-1.743 -15.019,-2.95 -3.888,-1.341 -6.571,-2.951 -8.046,-4.962 -1.609,-2.012 -2.413,-4.291 -2.413,-6.839l0 -350.797c0,-2.548 0.67,-4.827 2.011,-6.839 1.207,-2.011 3.62,-3.621 6.973,-4.961 3.487,-1.208 7.778,-2.279 13.142,-2.951 5.363,-0.67 12.203,-0.938 20.248,-0.938 8.449,0 15.287,0.268 20.785,0.938 5.498,0.672 9.79,1.743 12.873,2.951 2.951,1.34 5.096,2.95 6.437,4.961 1.341,2.012 2.011,4.291 2.011,6.839l0 40.498c19.31,-20.92 39.023,-36.475 59.137,-46.935 19.981,-10.459 40.899,-15.689 62.624,-15.689 23.869,0 43.983,3.889 60.343,11.801 16.36,7.777 29.501,18.505 39.692,32.049 10.057,13.41 17.299,29.233 21.725,47.336 4.424,18.103 6.704,39.826 6.704,65.171l0 216.566zm580.284 0c0,2.533 -0.85,4.799 -2.413,6.839 -1.514,1.975 -4.148,3.665 -8.047,4.962 -3.737,1.243 -8.853,2.29 -15.019,2.95 -6.298,0.674 -14.347,0.938 -24.002,0.938 -9.655,0 -17.705,-0.264 -24.004,-0.938 -6.165,-0.66 -11.281,-1.707 -15.019,-2.95 -3.898,-1.297 -6.532,-2.987 -8.046,-4.962 -1.563,-2.041 -2.413,-4.291 -2.413,-6.839l0 -349.992c0,-2.548 0.85,-4.798 2.413,-6.839 1.514,-1.976 4.19,-3.677 8.046,-5.096 3.783,-1.391 8.853,-2.56 15.019,-3.352 6.298,-0.81 14.349,-1.207 24.004,-1.207 9.655,0 17.706,0.397 24.002,1.207 6.167,0.792 11.238,1.961 15.019,3.352 3.857,1.419 6.533,3.12 8.047,5.096 1.563,2.04 2.413,4.299 2.413,6.839l0 349.992zm8.046 -469.875c0,19.98 -4.027,33.661 -12.203,41.302 -8.176,7.639 -23.198,11.398 -45.324,11.398 -22.261,0 -37.385,-3.657 -45.057,-10.995 -7.742,-7.405 -11.667,-20.652 -11.667,-39.693 0,-19.98 4.026,-33.797 12.07,-41.57 7.906,-7.64 23.064,-11.533 45.458,-11.533 21.992,0 36.98,3.794 44.923,11.265 7.875,7.407 11.8,20.65 11.8,39.826zm407.171 469.875c0,2.533 -0.85,4.799 -2.413,6.839 -1.514,1.975 -4.133,3.705 -7.778,4.962 -3.724,1.284 -8.852,2.28 -15.288,2.95 -6.436,0.67 -14.347,0.938 -23.734,0.938 -9.79,0 -17.838,-0.272 -24.272,-0.938 -6.432,-0.667 -11.562,-1.666 -15.286,-2.95 -3.646,-1.257 -6.265,-2.987 -7.779,-4.962 -1.562,-2.041 -2.413,-4.291 -2.413,-6.839l0 -199.938c0,-17.031 -1.29,-30.424 -3.755,-40.095 -2.49,-9.765 -6.069,-18.086 -10.727,-24.942 -4.721,-6.948 -10.825,-12.42 -18.238,-16.226 -7.465,-3.831 -16.091,-5.632 -26.014,-5.632 -12.605,0 -25.205,4.575 -38.084,13.812 -12.726,9.127 -26.149,22.528 -39.961,39.961l0 233.06c0,2.54 -0.85,4.799 -2.413,6.839 -1.514,1.975 -4.148,3.665 -8.047,4.962 -3.737,1.243 -8.853,2.29 -15.019,2.95 -6.298,0.674 -14.347,0.938 -24.002,0.938 -9.655,0 -17.705,-0.264 -24.004,-0.938 -6.165,-0.66 -11.281,-1.707 -15.019,-2.95 -3.898,-1.297 -6.532,-2.987 -8.046,-4.962 -1.564,-2.041 -2.413,-4.291 -2.413,-6.839l0 -350.797c0,-2.548 0.721,-4.8 2.012,-6.839 1.251,-1.978 3.592,-3.704 6.972,-4.961 3.455,-1.285 7.782,-2.284 13.142,-2.951 5.359,-0.667 12.203,-0.938 20.249,-0.938 8.448,0 15.291,0.271 20.784,0.938 5.495,0.667 9.827,1.666 12.873,2.951 2.983,1.257 5.096,2.95 6.437,4.961 1.342,2.012 2.012,4.299 2.012,6.839l0 40.498c19.31,-20.92 39.04,-36.452 59.136,-46.935 19.991,-10.428 40.9,-15.689 62.624,-15.689 23.869,0 43.961,3.948 60.343,11.801 16.33,7.828 29.515,18.501 39.693,32.049 10.063,13.398 17.299,29.233 21.724,47.336 4.424,18.102 6.704,39.834 6.704,65.171l0 216.566zm402.343 -185.456c0,12.054 -2.686,20.923 -8.045,26.685 -5.361,5.763 -12.747,8.717 -22.26,8.717l-213.482 0c0,14.884 1.79,28.286 5.364,40.497 3.526,12.053 9.085,22.431 16.762,30.842 7.737,8.478 17.704,14.889 29.903,19.31 12.199,4.422 26.685,6.706 43.716,6.706 17.298,0 32.457,-1.199 45.593,-3.756 13.006,-2.531 24.409,-5.234 33.926,-8.314 9.517,-3.081 17.433,-5.766 23.735,-8.313 6.303,-2.548 11.399,-3.755 15.288,-3.755 2.413,0 4.41,0.436 5.899,1.34 1.588,0.966 2.987,2.537 4.024,4.962 0.968,2.263 1.746,5.637 2.145,9.924 0.398,4.287 0.536,9.788 0.536,16.225 0,5.766 -0.133,10.728 -0.401,14.751 -0.269,4.023 -0.688,7.51 -1.208,10.325 -0.545,2.944 -1.239,5.352 -2.28,7.242 -1.097,1.992 -2.383,3.924 -4.156,5.766 -1.706,1.772 -6.304,4.292 -13.946,7.51 -7.643,3.218 -17.302,6.306 -29.1,9.386 -11.795,3.08 -25.21,5.766 -40.363,8.046 -15.152,2.279 -31.378,3.486 -48.676,3.486 -31.245,0 -58.457,-3.933 -81.934,-11.8 -23.315,-7.814 -42.949,-19.682 -58.735,-35.67 -15.719,-15.92 -27.439,-36.184 -35.132,-60.478 -7.72,-24.376 -11.533,-52.967 -11.533,-85.688 0,-31.11 4.068,-59.127 12.203,-84.212 8.083,-24.925 19.888,-46.101 35.402,-63.562 15.454,-17.395 34.212,-30.678 56.32,-39.827 22.27,-9.215 47.202,-13.812 74.96,-13.812 29.367,0 54.414,4.376 75.229,13.008 20.881,8.659 37.991,20.621 51.359,35.938 13.309,15.249 23.201,33.528 29.5,54.443 6.299,20.916 9.387,43.723 9.387,68.389l0 15.689zm-95.745 -28.16c0.805,-27.758 -4.863,-49.596 -16.762,-65.439 -11.964,-15.93 -30.305,-23.869 -55.247,-23.869 -12.606,0 -23.591,2.445 -32.854,7.107 -9.37,4.717 -17.167,11 -23.333,19.042 -6.164,8.042 -10.824,17.448 -14.081,28.294 -3.306,11.004 -5.229,22.529 -5.765,34.865l148.042 0z"/>
  <path class="fil3" d="M2723.3 312.267c0,1.849 -0.182,3.178 -0.574,3.985 -0.39,0.808 -0.963,1.224 -1.718,1.224l-29.896 0 0 25.313 28.099 0c0.313,0 0.599,0.104 0.912,0.312 0.312,0.209 0.546,0.495 0.729,0.912 0.182,0.416 0.313,0.937 0.416,1.562 0.105,0.626 0.157,1.432 0.157,2.396 0,0.938 -0.052,1.719 -0.157,2.37 -0.103,0.677 -0.234,1.198 -0.416,1.589 -0.183,0.364 -0.417,0.651 -0.729,0.859 -0.313,0.208 -0.599,0.312 -0.912,0.312l-28.099 0 0 32.71c0,0.417 -0.105,0.755 -0.312,1.042 -0.209,0.26 -0.547,0.495 -1.016,0.676 -0.495,0.183 -1.146,0.313 -1.98,0.417 -0.859,0.104 -1.901,0.156 -3.177,0.156 -1.224,0 -2.24,-0.052 -3.099,-0.156 -0.833,-0.104 -1.51,-0.234 -2.005,-0.417 -0.521,-0.181 -0.859,-0.416 -1.068,-0.676 -0.209,-0.287 -0.312,-0.625 -0.312,-1.042l0 -74.064c0,-1.694 0.469,-2.891 1.38,-3.62 0.911,-0.755 1.875,-1.121 2.89,-1.121l38.595 0c0.755,0 1.328,0.418 1.718,1.251 0.392,0.859 0.574,2.188 0.574,4.01zm69.115 73.935c0,0.338 -0.114,0.648 -0.312,0.859 -0.213,0.226 -0.574,0.422 -1.094,0.573 -0.544,0.157 -1.305,0.288 -2.24,0.364 -0.935,0.075 -2.135,0.104 -3.568,0.104 -1.38,0 -2.502,-0.03 -3.333,-0.104 -0.856,-0.077 -1.54,-0.232 -2.083,-0.469 -0.52,-0.226 -0.925,-0.533 -1.171,-0.885 -0.244,-0.346 -0.428,-0.82 -0.626,-1.38l-6.562 -18.49c-0.76,-2.143 -1.618,-4.065 -2.526,-5.807 -0.91,-1.742 -1.982,-3.207 -3.204,-4.402 -1.221,-1.195 -2.654,-2.122 -4.322,-2.786 -1.66,-0.66 -3.808,-0.99 -6.46,-0.99l-7.864 0 0 33.099c0,0.361 -0.1,0.685 -0.312,0.965 -0.199,0.263 -0.551,0.493 -1.068,0.676 -0.494,0.176 -1.175,0.316 -1.979,0.417 -0.806,0.101 -1.85,0.156 -3.125,0.156 -1.225,0 -2.244,-0.053 -3.099,-0.156 -0.831,-0.099 -1.512,-0.241 -2.006,-0.417 -0.516,-0.183 -0.868,-0.414 -1.068,-0.676 -0.213,-0.28 -0.312,-0.599 -0.312,-0.965l0 -74.141c0,-1.694 0.477,-2.886 1.38,-3.62 0.915,-0.745 1.875,-1.121 2.891,-1.121l21.537 0c4.896,0 9.013,0.498 12.396,1.46 3.382,0.961 6.253,2.345 8.568,4.114 2.316,1.768 4.086,3.989 5.313,6.614 1.216,2.604 1.822,5.573 1.822,8.881 0,2.657 -0.379,5.077 -1.12,7.265 -0.738,2.182 -1.773,4.17 -3.125,5.913 -1.352,1.741 -3.003,3.274 -4.922,4.531 -1.93,1.264 -4.141,2.317 -6.641,3.151 1.381,0.546 2.644,1.237 3.803,2.083 1.154,0.842 2.182,1.884 3.125,3.099 0.953,1.228 1.846,2.662 2.682,4.271 0.852,1.641 1.72,3.46 2.5,5.495l6.824 17.813c0.508,1.327 0.871,2.292 1.041,2.943 0.163,0.62 0.26,1.146 0.26,1.563zm-18.021 -56.695c0,-1.771 -0.275,-3.436 -0.808,-4.973 -0.53,-1.531 -1.409,-2.868 -2.629,-3.959 -1.222,-1.09 -2.818,-1.973 -4.714,-2.604 -1.927,-0.641 -4.51,-0.964 -7.787,-0.964l-11.406 0 0 25.938 10.885 0c3.152,0 5.73,-0.324 7.735,-0.964 1.974,-0.63 3.623,-1.564 4.896,-2.76 1.274,-1.195 2.236,-2.635 2.865,-4.245 0.641,-1.641 0.963,-3.463 0.963,-5.469zm102.009 53.543c0.413,1.089 0.577,2.035 0.651,2.683 0.076,0.673 -0.095,1.188 -0.495,1.536 -0.402,0.349 -1.097,0.577 -2.057,0.677 -0.961,0.101 -2.291,0.156 -3.985,0.156 -1.667,0 -2.997,-0.029 -3.932,-0.104 -0.935,-0.075 -1.669,-0.214 -2.162,-0.364 -0.516,-0.157 -0.878,-0.373 -1.067,-0.678 -0.197,-0.314 -0.388,-0.704 -0.547,-1.145l-6.641 -18.177 -34.167 0 -6.225 18.021c-0.156,0.456 -0.453,0.829 -0.703,1.146 -0.238,0.302 -0.631,0.569 -1.093,0.754 -0.495,0.199 -1.202,0.369 -2.11,0.443 -0.934,0.076 -2.109,0.104 -3.541,0.104 -1.485,0 -2.66,-0.054 -3.568,-0.182 -0.882,-0.126 -1.52,-0.361 -1.875,-0.729 -0.342,-0.356 -0.493,-0.888 -0.444,-1.615 0.048,-0.7 0.276,-1.582 0.678,-2.656l27.553 -73.7c0.211,-0.562 0.446,-1.018 0.755,-1.38 0.31,-0.361 0.76,-0.625 1.38,-0.807 0.597,-0.176 1.407,-0.313 2.396,-0.391 0.99,-0.078 2.239,-0.104 3.776,-0.104 1.277,0 2.347,0.003 3.256,0.026 0.882,0.023 1.644,0.081 2.239,0.156 0.596,0.076 1.151,0.182 1.614,0.313 0.442,0.123 0.812,0.29 1.094,0.494 0.283,0.206 0.53,0.468 0.73,0.756 0.211,0.305 0.377,0.689 0.521,1.068l27.969 73.699zm-37.501 -63.908l-0.156 0 -13.308 38.335 27.371 0 -13.907 -38.335zm141.419 66.746c0,0.353 -0.072,0.683 -0.26,0.965 -0.175,0.263 -0.526,0.493 -1.016,0.676 -0.467,0.175 -1.124,0.314 -1.953,0.417 -0.805,0.099 -1.797,0.156 -2.968,0.156 -1.303,0 -2.348,-0.057 -3.152,-0.156 -0.829,-0.103 -1.461,-0.237 -1.927,-0.417 -0.465,-0.178 -0.791,-0.415 -0.963,-0.676 -0.186,-0.28 -0.261,-0.599 -0.261,-0.965l0 -67.735 -0.157 0 -28.411 68.127c-0.24,0.578 -0.762,1.059 -1.641,1.354 -0.885,0.297 -2.369,0.468 -4.401,0.468 -1.067,0 -1.957,-0.029 -2.656,-0.104 -0.701,-0.075 -1.302,-0.225 -1.745,-0.364 -0.462,-0.143 -0.804,-0.348 -1.042,-0.573 -0.225,-0.211 -0.453,-0.478 -0.573,-0.781l-27.344 -68.127 -0.156 0 0 67.735c0,0.359 -0.075,0.685 -0.261,0.965 -0.172,0.261 -0.498,0.498 -0.964,0.676 -0.465,0.18 -1.097,0.314 -1.927,0.417 -0.803,0.099 -1.848,0.156 -3.125,0.156 -1.301,0 -2.32,-0.054 -3.125,-0.156 -0.778,-0.099 -1.409,-0.237 -1.875,-0.417 -0.465,-0.178 -0.788,-0.413 -0.963,-0.676 -0.188,-0.282 -0.26,-0.599 -0.26,-0.965l0 -73.854c0,-1.72 0.495,-2.996 1.458,-3.803 0.964,-0.807 2.058,-1.225 3.307,-1.225l8.282 0c1.562,0 2.916,0.17 4.036,0.47 1.088,0.292 2.093,0.776 2.917,1.432 0.836,0.665 1.575,1.509 2.188,2.526 0.605,1.008 1.032,2.253 1.588,3.594l22.631 54.662 0.312 0 23.308 -54.35c0.653,-1.525 1.254,-2.841 1.875,-3.906 0.622,-1.064 1.377,-1.937 2.214,-2.604 0.823,-0.655 1.774,-1.123 2.812,-1.406 1.038,-0.284 2.266,-0.418 3.698,-0.418l7.813 0c1.276,0 2.396,0.418 3.307,1.225 0.911,0.807 1.38,2.09 1.38,3.803l0 73.854zm62.082 -3.411c0,0.911 -0.059,1.698 -0.156,2.345 -0.1,0.67 -0.235,1.204 -0.417,1.639 -0.172,0.413 -0.418,0.742 -0.677,0.913 -0.277,0.181 -0.584,0.26 -0.885,0.26l-40.939 0c-1.004,0 -1.978,-0.378 -2.89,-1.12 -0.899,-0.731 -1.38,-1.927 -1.38,-3.62l0 -71.147c0,-1.694 0.48,-2.889 1.38,-3.62 0.911,-0.742 1.875,-1.121 2.89,-1.121l40.392 0c0.365,0 0.687,0.079 0.963,0.261 0.259,0.172 0.496,0.477 0.678,0.886 0.172,0.387 0.313,0.937 0.416,1.614 0.103,0.678 0.157,1.485 0.157,2.396 0,0.911 -0.056,1.673 -0.157,2.318 -0.096,0.619 -0.234,1.128 -0.416,1.511 -0.172,0.361 -0.424,0.679 -0.678,0.859 -0.282,0.2 -0.609,0.312 -0.963,0.312l-31.693 0 0 23.595 27.318 0c0.364,0 0.688,0.077 0.963,0.26 0.259,0.17 0.538,0.469 0.73,0.885 0.187,0.407 0.342,0.945 0.417,1.615 0.071,0.646 0.104,1.458 0.104,2.422 0,0.886 -0.03,1.621 -0.104,2.266 -0.071,0.62 -0.23,1.156 -0.417,1.562 -0.192,0.417 -0.472,0.714 -0.73,0.886 -0.276,0.182 -0.61,0.261 -0.963,0.261l-27.318 0 0 26.562 32.24 0c0.313,0 0.608,0.078 0.885,0.261 0.259,0.17 0.496,0.477 0.677,0.885 0.173,0.388 0.32,0.917 0.417,1.537 0.1,0.644 0.156,1.406 0.156,2.317zm101.997 2.865c-0.162,0.558 -0.501,1.048 -0.808,1.38 -0.331,0.358 -0.842,0.65 -1.484,0.833 -0.672,0.194 -1.511,0.365 -2.526,0.443 -1.016,0.078 -2.292,0.104 -3.802,0.104 -1.719,0 -3.159,-0.032 -4.245,-0.104 -1.062,-0.071 -1.931,-0.249 -2.552,-0.443 -0.59,-0.183 -1.052,-0.5 -1.328,-0.911 -0.257,-0.382 -0.479,-0.916 -0.652,-1.51l-17.031 -58.205 -0.235 0 -16.146 58.283c-0.165,0.597 -0.46,1.112 -0.755,1.484 -0.292,0.37 -0.792,0.673 -1.381,0.859 -0.596,0.19 -1.432,0.365 -2.447,0.443 -1.016,0.078 -2.292,0.104 -3.88,0.104 -1.615,0 -3.002,-0.032 -4.089,-0.104 -1.062,-0.071 -1.955,-0.257 -2.604,-0.443 -0.665,-0.191 -1.147,-0.481 -1.459,-0.833 -0.299,-0.338 -0.573,-0.834 -0.754,-1.432l-22.58 -73.7c-0.343,-1.125 -0.553,-2.039 -0.573,-2.734 -0.018,-0.671 0.19,-1.178 0.652,-1.51 0.462,-0.332 1.172,-0.547 2.135,-0.652 0.964,-0.104 2.266,-0.156 3.88,-0.156 1.537,0 2.716,0.031 3.568,0.104 0.828,0.07 1.493,0.211 1.979,0.391 0.464,0.171 0.814,0.424 0.99,0.729 0.175,0.306 0.35,0.715 0.495,1.225l18.595 65.209 0.155 0 17.97 -64.976c0.158,-0.572 0.349,-1.019 0.547,-1.353 0.179,-0.304 0.534,-0.591 0.989,-0.782 0.443,-0.186 1.101,-0.371 1.927,-0.443 0.827,-0.071 2.005,-0.104 3.464,-0.104 1.432,0 2.578,0.026 3.437,0.104 0.859,0.078 1.515,0.248 1.979,0.443 0.433,0.181 0.767,0.473 0.938,0.782 0.18,0.328 0.361,0.737 0.494,1.197l18.881 65.132 0.079 0 17.266 -64.976c0.152,-0.574 0.349,-1.019 0.547,-1.353 0.179,-0.304 0.556,-0.601 1.015,-0.782 0.491,-0.195 1.179,-0.372 2.032,-0.443 0.879,-0.072 2.057,-0.104 3.541,-0.104 1.485,0 2.638,0.057 3.49,0.156 0.827,0.096 1.445,0.339 1.796,0.678 0.365,0.352 0.474,0.891 0.443,1.562 -0.033,0.696 -0.187,1.635 -0.521,2.786l-21.432 73.622zm104.075 -39.011c0,6.615 -0.828,12.563 -2.474,17.812 -1.648,5.258 -4.101,9.741 -7.317,13.412 -3.229,3.686 -7.245,6.548 -12.006,8.516 -4.783,1.977 -10.26,2.969 -16.485,2.969 -6.198,0 -11.616,-0.882 -16.25,-2.605 -4.649,-1.727 -8.549,-4.302 -11.667,-7.733 -3.119,-3.432 -5.464,-7.72 -6.979,-12.84 -1.518,-5.127 -2.292,-11.12 -2.292,-17.917 0,-6.406 0.852,-12.242 2.527,-17.448 1.671,-5.198 4.147,-9.642 7.395,-13.308 3.224,-3.638 7.272,-6.496 12.031,-8.463 4.784,-1.977 10.261,-2.969 16.46,-2.969 5.963,0 11.227,0.874 15.833,2.604 4.574,1.72 8.477,4.298 11.614,7.683 3.151,3.399 5.546,7.639 7.162,12.657 1.627,5.048 2.448,10.911 2.448,17.63zm-13.594 0.833c0,-4.479 -0.42,-8.601 -1.249,-12.344 -0.824,-3.718 -2.215,-6.991 -4.089,-9.739 -1.863,-2.733 -4.326,-4.871 -7.371,-6.408 -3.045,-1.536 -6.822,-2.291 -11.275,-2.291 -4.48,0 -8.231,0.824 -11.303,2.448 -3.06,1.618 -5.573,3.865 -7.474,6.693 -1.887,2.81 -3.315,6.1 -4.193,9.844 -0.879,3.743 -1.328,7.682 -1.328,11.797 0,4.636 0.425,8.886 1.224,12.683 0.802,3.82 2.169,7.116 4.062,9.895 1.895,2.78 4.388,4.919 7.423,6.407 3.045,1.493 6.823,2.265 11.276,2.265 4.479,0 8.256,-0.85 11.355,-2.526 3.086,-1.67 5.6,-3.942 7.526,-6.796 1.914,-2.836 3.337,-6.18 4.167,-9.975 0.823,-3.769 1.249,-7.76 1.249,-11.953zm85.423 39.038c0,0.338 -0.121,0.654 -0.312,0.859 -0.207,0.219 -0.582,0.429 -1.094,0.573 -0.538,0.15 -1.311,0.295 -2.24,0.364 -0.928,0.069 -2.135,0.104 -3.568,0.104 -1.38,0 -2.51,-0.036 -3.333,-0.104 -0.85,-0.07 -1.547,-0.239 -2.084,-0.469 -0.512,-0.22 -0.931,-0.54 -1.171,-0.885 -0.236,-0.34 -0.428,-0.82 -0.625,-1.38l-6.563 -18.49c-0.76,-2.143 -1.624,-4.072 -2.526,-5.807 -0.902,-1.736 -1.988,-3.213 -3.203,-4.402 -1.215,-1.188 -2.661,-2.13 -4.323,-2.786 -1.652,-0.654 -3.821,-0.99 -6.459,-0.99l-7.865 0 0 33.099c0,0.347 -0.106,0.692 -0.312,0.965 -0.192,0.257 -0.557,0.5 -1.067,0.676 -0.487,0.169 -1.182,0.323 -1.98,0.417 -0.798,0.095 -1.849,0.156 -3.125,0.156 -1.224,0 -2.249,-0.06 -3.099,-0.156 -0.824,-0.093 -1.519,-0.248 -2.005,-0.417 -0.511,-0.176 -0.875,-0.421 -1.068,-0.676 -0.206,-0.274 -0.312,-0.599 -0.312,-0.965l0 -74.141c0,-1.694 0.484,-2.892 1.38,-3.62 0.908,-0.737 1.874,-1.121 2.89,-1.121l21.538 0c4.895,0 9.02,0.505 12.395,1.46 3.376,0.954 6.26,2.353 8.568,4.114 2.309,1.762 4.094,3.995 5.313,6.614 1.21,2.596 1.823,5.573 1.823,8.881 0,2.657 -0.386,5.083 -1.12,7.265 -0.732,2.175 -1.78,4.177 -3.125,5.913 -1.345,1.735 -3.01,3.282 -4.922,4.531 -1.923,1.258 -4.141,2.317 -6.641,3.151 1.381,0.546 2.651,1.244 3.803,2.083 1.147,0.835 2.189,1.89 3.125,3.099 0.947,1.22 1.853,2.668 2.681,4.271 0.846,1.634 1.726,3.473 2.5,5.495l6.824 17.813c0.503,1.313 0.878,2.299 1.042,2.943 0.155,0.614 0.26,1.146 0.26,1.563zm-18.021 -56.695c0,-1.771 -0.282,-3.443 -0.808,-4.973 -0.523,-1.524 -1.415,-2.875 -2.629,-3.959 -1.216,-1.084 -2.825,-1.98 -4.714,-2.604 -1.92,-0.635 -4.524,-0.964 -7.787,-0.964l-11.407 0 0 25.938 10.886 0c3.151,0 5.737,-0.33 7.734,-0.964 1.968,-0.623 3.63,-1.572 4.896,-2.76 1.267,-1.188 2.243,-2.642 2.865,-4.245 0.635,-1.633 0.964,-3.463 0.964,-5.469zm87.768 56.304c0,0.364 -0.115,0.687 -0.313,0.99 -0.197,0.301 -0.555,0.56 -1.016,0.728 -0.483,0.176 -1.182,0.322 -2.082,0.417 -0.877,0.092 -1.98,0.156 -3.256,0.156 -1.406,0 -2.589,-0.035 -3.516,-0.104 -0.9,-0.067 -1.676,-0.221 -2.24,-0.39 -0.586,-0.176 -1.052,-0.427 -1.38,-0.73 -0.327,-0.302 -0.599,-0.672 -0.885,-1.067l-29.376 -40.392 0 40.392c0,0.396 -0.107,0.77 -0.312,1.042 -0.191,0.256 -0.558,0.501 -1.068,0.676 -0.485,0.168 -1.182,0.324 -1.979,0.417 -0.797,0.094 -1.849,0.156 -3.125,0.156 -1.224,0 -2.25,-0.061 -3.099,-0.156 -0.823,-0.092 -1.52,-0.249 -2.005,-0.417 -0.51,-0.175 -0.876,-0.422 -1.068,-0.676 -0.205,-0.273 -0.312,-0.599 -0.312,-0.965l0 -77.215c0,-0.312 0.107,-0.614 0.312,-0.885 0.192,-0.255 0.558,-0.502 1.068,-0.677 0.485,-0.168 1.182,-0.324 2.005,-0.417 0.849,-0.095 1.875,-0.156 3.099,-0.156 1.276,0 2.328,0.062 3.125,0.156 0.797,0.094 1.494,0.249 1.979,0.417 0.51,0.175 0.876,0.423 1.068,0.677 0.204,0.272 0.312,0.594 0.312,0.885l0 35.054 27.97 -34.975c0.325,-0.406 0.65,-0.78 1.016,-1.042 0.37,-0.264 0.868,-0.509 1.406,-0.677 0.561,-0.176 1.26,-0.323 2.057,-0.391 0.797,-0.068 1.823,-0.104 3.047,-0.104 1.328,0 2.432,0.062 3.281,0.156 0.85,0.094 1.545,0.25 2.005,0.417 0.482,0.176 0.851,0.422 1.068,0.677 0.231,0.271 0.339,0.599 0.339,0.964 0,0.312 -0.036,0.609 -0.104,0.885 -0.068,0.277 -0.213,0.613 -0.339,0.937 -0.139,0.358 -0.391,0.773 -0.651,1.199 -0.266,0.438 -0.667,0.96 -1.12,1.484l-26.224 30.313 28.568 38.412c0.292,0.392 0.563,0.815 0.755,1.146 0.204,0.35 0.391,0.719 0.521,1.042 0.135,0.332 0.294,0.637 0.365,0.885 0.064,0.226 0.104,0.495 0.104,0.756z"/>
  <rect class="fil4" x="-0" width="3600" height="1200"/>
 </g>
</svg>
