<?xml version="1.0" encoding="UTF-8"?>
<!DOCTYPE svg PUBLIC "-//W3C//DTD SVG 1.1//EN" "http://www.w3.org/Graphics/SVG/1.1/DTD/svg11.dtd">
<!-- Creator: CorelDRAW 2018 (64-Bit) -->
<svg xmlns="http://www.w3.org/2000/svg" xml:space="preserve" width="36mm" height="12mm" version="1.1" style="shape-rendering:geometricPrecision; text-rendering:geometricPrecision; image-rendering:optimizeQuality; fill-rule:evenodd; clip-rule:evenodd"
viewBox="0 0 3600 1200"
 xmlns:xlink="http://www.w3.org/1999/xlink">
 <defs>
  <style type="text/css">
   <![CDATA[
    .fil4 {fill:none}
    .fil0 {fill:#00CCFF}
    .fil2 {fill:#00CCFF;fill-rule:nonzero}
    .fil3 {fill:#CCCCCC;fill-rule:nonzero}
    .fil1 {fill:white;fill-rule:nonzero}
   ]]>
  </style>
 </defs>
 <g id="Layer_x0020_1">
  <metadata id="CorelCorpID_0Corel-Layer"/>
  <path class="fil0" d="M644.7 225.19c32.65,-1.44 64.87,1.5 95.94,8.4l68.44 -63c8.1,-7.46 16.61,-14.33 26.58,-9.68l45.28 21.12c9.97,4.64 10.18,15.59 9.67,26.57l-4.27 93c25.4,19.48 48.36,42.3 68.15,68.03l92.88 -4.27c10.99,-0.5 21.93,-0.29 26.58,9.68l21.11 45.27c4.66,9.97 -2.22,18.49 -9.67,26.58l-63.04 68.48c7.14,32.17 9.83,64.37 8.48,95.94l73.88 56.43c8.75,6.67 16.99,13.87 14.14,24.49l-12.93 48.26c-2.84,10.62 -13.58,12.73 -24.49,14.14l-92.32 11.94c-14.87,28.49 -33.41,55.04 -55.18,78.88l20.35 90.78c2.4,10.73 4.09,21.54 -4.92,27.85l-40.92 28.65c-9.01,6.32 -18.59,1.02 -27.85,-4.91l-78.36 -50.17c-14.7,6.05 -29.94,11.24 -45.7,15.46 -15.76,4.23 -31.56,7.36 -47.31,9.46l-42.77 82.63c-5.06,9.77 -10.71,19.14 -21.67,18.18l-49.77 -4.35c-10.95,-0.96 -14.89,-11.17 -18.18,-21.67l-27.77 -88.81c-30.77,-9.76 -60.08,-23.47 -87.2,-40.71l-85.94 35.83c-10.16,4.23 -20.51,7.78 -28.29,0l-35.32 -35.32c-7.78,-7.78 -4.24,-18.14 0,-28.29l35.79 -85.85c-16.95,-26.66 -30.72,-55.86 -40.62,-87.27l-88.86 -27.8c-10.5,-3.28 -20.71,-7.22 -21.67,-18.18l-4.35 -49.77c-0.96,-10.95 8.41,-16.61 18.18,-21.66l82.57 -42.75c4.27,-32.17 12.75,-63.42 25,-92.99l-50.2 -78.4c-5.93,-9.26 -11.22,-18.84 -4.91,-27.85l28.66 -40.93c6.31,-9.01 17.12,-7.31 27.85,-4.91l90.79 20.35c23.46,-21.51 49.89,-40.17 78.88,-55.25l11.93 -92.25c1.41,-10.91 3.52,-21.65 14.14,-24.5l48.26 -12.93c10.62,-2.84 17.82,5.4 24.49,14.15l56.46 73.92z"/>
  <path class="fil1" d="M585.53 781.87c0,2.09 -0.67,3.96 -1.99,5.62 -1.21,1.65 -3.41,2.97 -6.61,4.07 -3.09,1 -7.27,1.88 -12.34,2.43 -5.18,0.55 -11.79,0.77 -19.73,0.77 -7.93,0 -14.54,-0.22 -19.72,-0.77 -5.07,-0.55 -9.26,-1.43 -12.35,-2.43 -3.19,-1.1 -5.4,-2.42 -6.61,-4.07 -1.32,-1.66 -1.98,-3.53 -1.98,-5.62l0 -287.63c0,-2.09 0.66,-3.97 1.98,-5.62 1.21,-1.65 3.42,-3.09 6.61,-4.19 3.09,-1.21 7.28,-2.09 12.35,-2.75 5.18,-0.66 11.79,-1 19.72,-1 7.94,0 14.55,0.34 19.73,1 5.07,0.66 9.25,1.54 12.34,2.75 3.2,1.1 5.4,2.54 6.61,4.19 1.32,1.65 1.99,3.53 1.99,5.62l0 287.63zm6.61 -386.15c0,16.42 -3.31,27.66 -10.03,33.94 -6.72,6.28 -19.07,9.37 -37.25,9.37 -18.29,0 -30.74,-2.98 -37.03,-9.04 -6.39,-6.06 -9.58,-16.97 -9.58,-32.62 0,-16.42 3.3,-27.77 9.91,-34.16 6.51,-6.28 18.96,-9.48 37.36,-9.48 18.08,0 30.42,3.09 36.92,9.26 6.5,6.06 9.7,16.97 9.7,32.73zm277.48 304.6c0,16.31 -3.08,30.74 -9.25,43.31 -6.06,12.45 -14.77,22.81 -26.01,31.29 -11.24,8.38 -24.46,14.66 -39.78,18.85 -15.32,4.18 -31.85,6.28 -49.7,6.28 -10.8,0 -21.16,-0.77 -30.97,-2.43 -9.81,-1.65 -18.51,-3.74 -26.34,-6.28 -7.71,-2.42 -14.21,-4.96 -19.39,-7.6 -5.18,-2.65 -8.93,-5.07 -11.24,-7.38 -2.43,-2.32 -4.3,-5.85 -5.51,-10.69 -1.33,-4.74 -1.99,-11.91 -1.99,-21.38 0,-6.17 0.22,-11.13 0.66,-14.88 0.44,-3.75 1.11,-6.83 1.88,-9.04 0.88,-2.2 1.98,-3.74 3.3,-4.51 1.22,-0.78 2.87,-1.11 4.85,-1.11 2.32,0 5.84,1.33 10.47,4.08 4.63,2.76 10.36,5.73 17.3,8.93 6.84,3.3 14.88,6.39 24.03,9.14 9.14,2.87 19.61,4.3 31.18,4.3 7.28,0 13.89,-0.77 19.51,-2.31 5.73,-1.44 10.69,-3.64 14.88,-6.5 4.18,-2.76 7.38,-6.29 9.58,-10.69 2.1,-4.3 3.2,-9.26 3.2,-14.88 0,-6.5 -1.98,-12.01 -5.95,-16.64 -4.08,-4.63 -9.37,-8.71 -15.87,-12.12 -6.61,-3.42 -14.11,-6.62 -22.37,-9.7 -8.27,-2.98 -16.86,-6.28 -25.57,-10.03 -8.7,-3.64 -17.3,-7.82 -25.56,-12.56 -8.27,-4.74 -15.76,-10.47 -22.37,-17.41 -6.51,-6.84 -11.8,-15.21 -15.87,-24.8 -3.97,-9.7 -5.95,-21.38 -5.95,-34.93 0,-13.78 2.75,-26.34 8.15,-37.91 5.4,-11.46 13.11,-21.38 23.25,-29.54 10.25,-8.15 22.59,-14.54 37.14,-19.06 14.66,-4.52 30.97,-6.72 49.15,-6.72 9.15,0 17.85,0.66 26.45,1.87 8.48,1.32 16.31,2.97 23.14,4.85 6.94,1.98 12.78,3.96 17.52,6.28 4.74,2.2 8.16,4.19 10.25,5.73 2.1,1.65 3.53,3.2 4.41,4.85 0.77,1.65 1.43,3.52 1.87,5.84 0.44,2.2 0.88,5.07 1.22,8.37 0.33,3.31 0.44,7.5 0.44,12.46 0,5.84 -0.11,10.58 -0.44,14.21 -0.34,3.64 -0.89,6.61 -1.66,8.71 -0.77,2.2 -1.76,3.64 -3.08,4.41 -1.33,0.77 -2.87,1.1 -4.52,1.1 -1.99,0 -5.07,-1.1 -9.15,-3.42 -4.08,-2.2 -9.26,-4.63 -15.43,-7.16 -6.17,-2.54 -13.33,-4.96 -21.38,-7.16 -8.15,-2.32 -17.41,-3.42 -27.77,-3.42 -7.38,0 -13.77,0.77 -19.17,2.2 -5.4,1.55 -9.81,3.75 -13.34,6.51 -3.41,2.75 -6.06,6.06 -7.71,9.8 -1.76,3.75 -2.64,7.83 -2.64,12.02 0,6.72 2.09,12.34 6.17,16.86 4.07,4.51 9.47,8.48 16.2,11.9 6.61,3.41 14.32,6.72 22.81,9.7 8.48,2.97 17.19,6.28 25.9,9.8 8.7,3.53 17.41,7.72 25.89,12.46 8.49,4.74 16.2,10.58 22.81,17.41 6.73,6.94 12.13,15.1 16.2,24.68 4.08,9.59 6.17,20.94 6.17,34.06z"/>
  <path class="fil2" d="M1616.93 788.75c0,7.65 -0.26,13.95 -0.94,19.18 -0.66,5.1 -1.64,9.24 -2.95,12.34 -1.37,3.2 -2.98,5.46 -4.96,6.97 -1.91,1.44 -4.16,2.15 -6.44,2.15l-255.05 0c-8.58,0 -15.83,-2.55 -21.73,-7.65 -5.9,-5.09 -8.85,-13.41 -8.85,-24.94l0 -443.32c0,-11.54 2.95,-19.85 8.85,-24.95 5.9,-5.09 13.14,-7.64 21.73,-7.64l253.84 0c2.28,0 4.45,0.64 6.3,2.01 1.77,1.31 3.44,3.59 4.7,6.84 1.29,3.32 2.29,7.51 2.95,12.61 0.68,5.22 0.94,11.66 0.94,19.57 0,7.38 -0.26,13.55 -0.94,18.78 -0.66,5.09 -1.64,9.24 -2.95,12.34 -1.37,3.2 -2.93,5.53 -4.7,6.97 -1.84,1.51 -4.02,2.14 -6.3,2.14l-181.43 0 0 123.91 152.87 0c2.41,0 4.53,0.7 6.44,2.15 1.98,1.5 3.59,3.63 4.96,6.7 1.31,2.96 2.27,6.98 2.95,12.2 0.66,5.1 0.94,11.27 0.94,18.51 0,7.64 -0.27,13.94 -0.94,18.91 -0.67,4.96 -1.64,8.97 -2.95,11.93 -1.37,3.07 -3,5.15 -4.96,6.44 -1.93,1.26 -4.03,2.01 -6.44,2.01l-152.87 0 0 143.21 182.64 0c2.41,0 4.53,0.71 6.44,2.15 1.98,1.5 3.59,3.77 4.96,6.97 1.31,3.1 2.29,7.24 2.95,12.34 0.68,5.23 0.94,11.53 0.94,19.17zm704.21 -0.4c-9.39,8.72 -18.65,16.22 -27.49,22.53 -9,6.42 -17.84,11.67 -26.69,15.82 -8.98,4.03 -18.1,6.98 -27.62,8.85 -9.39,1.75 -19.31,2.69 -29.77,2.69 -25.75,0 -47.61,-5.23 -65.71,-15.56 -17.97,-10.32 -32.72,-24.27 -44.12,-41.84 -11.4,-17.43 -19.71,-37.95 -24.94,-61.41 -5.23,-23.47 -7.91,-48.14 -7.91,-74.03 0,-31.11 3.35,-59.13 10.19,-84.07 6.84,-24.81 16.76,-46 29.9,-63.57 13.15,-17.56 29.24,-30.97 48.28,-40.49 19.17,-9.39 41.3,-14.08 66.51,-14.08 9.66,0 18.91,0.94 27.89,2.95 8.85,2.01 17.7,5.36 26.69,10.19 8.85,4.83 18.1,11.13 27.76,18.91 9.52,7.64 19.98,17.16 31.51,28.42l0 -38.21c0,-2.68 0.8,-4.96 2.28,-6.98 1.34,-2.01 3.75,-3.62 6.97,-4.96 3.35,-1.2 7.51,-2.28 12.74,-2.95 5.23,-0.67 12.07,-0.94 20.52,-0.94 7.78,0 14.35,0.27 19.71,0.94 5.36,0.67 9.66,1.75 12.87,2.95 3.09,1.34 5.37,2.95 6.57,4.96 1.34,2.02 2.02,4.3 2.02,6.84l0 270.98c-1.02,64.55 2.81,128.9 -44.26,176.77 -15.82,15.96 -35.4,27.89 -58.73,35.67 -23.47,7.91 -50.69,11.8 -81.93,11.8 -17.3,0 -33.53,-1.2 -48.68,-3.48 -15.15,-2.28 -28.56,-4.97 -40.36,-8.05 -11.8,-3.08 -21.46,-6.17 -29.1,-9.39 -7.65,-3.21 -12.21,-5.76 -13.95,-7.51 -1.74,-1.87 -3.08,-3.75 -4.16,-5.76 -1.07,-1.88 -1.74,-4.29 -2.28,-7.24 -0.53,-2.82 -0.93,-6.31 -1.2,-10.33 -0.27,-4.02 -0.4,-8.98 -0.4,-14.75 0,-6.44 0.13,-11.93 0.53,-16.22 0.4,-4.3 1.21,-7.65 2.15,-9.93 1.07,-2.41 2.41,-4.02 4.02,-4.96 1.48,-0.94 3.49,-1.34 5.9,-1.34 3.89,0 8.98,1.21 15.29,3.75 6.3,2.55 14.21,5.23 23.73,8.32 9.52,3.08 20.92,5.76 33.93,8.31 13.14,2.55 28.29,3.76 45.59,3.76 17.03,0 31.51,-2.28 43.72,-6.71 12.2,-4.42 22.12,-10.86 29.9,-19.31 7.64,-8.45 13.23,-18.78 16.76,-30.84 3.58,-12.21 5.37,-25.61 5.37,-40.5zm0 -206.51c-14.08,-17.83 -27.76,-31.38 -40.63,-40.9 -13.01,-9.38 -26.56,-14.08 -40.77,-14.08 -12.74,0 -23.87,3.22 -33.12,9.66 -9.39,6.43 -16.76,14.88 -22.4,25.61 -5.63,10.86 -9.92,22.8 -12.6,35.94 -2.82,13.27 -4.16,26.82 -4.16,40.63 0,14.75 1.21,29.1 3.49,43.05 2.41,13.94 6.3,26.41 11.66,37.14 5.37,10.73 12.48,19.31 21.46,25.88 8.85,6.57 20.12,9.79 33.79,9.79 6.71,0 13.41,-0.94 19.85,-2.95 6.44,-2.01 12.87,-5.1 19.58,-9.66 6.7,-4.42 13.54,-10.19 20.65,-17.43 7.1,-7.24 14.88,-15.95 23.2,-26.41l0 -116.27zm-311.51 234.27c0,2.55 -0.81,4.83 -2.41,6.84 -1.48,2.01 -4.16,3.62 -7.78,4.96 -3.76,1.21 -8.85,2.28 -15.29,2.95 -6.44,0.67 -14.35,0.94 -23.73,0.94 -9.79,0 -17.84,-0.27 -24.28,-0.94 -6.43,-0.67 -11.53,-1.74 -15.28,-2.95 -3.62,-1.34 -6.31,-2.95 -7.78,-4.96 -1.61,-2.01 -2.41,-4.29 -2.41,-6.84l0 -199.94c0,-17.03 -1.21,-30.44 -3.76,-40.09 -2.41,-9.79 -6.03,-18.11 -10.73,-24.95 -4.69,-6.97 -10.86,-12.33 -18.23,-16.22 -7.51,-3.76 -16.1,-5.63 -26.02,-5.63 -12.6,0 -25.21,4.56 -38.08,13.81 -12.74,9.12 -26.15,22.53 -39.96,39.96l0 233.06c0,2.55 -0.81,4.83 -2.42,6.84 -1.47,2.01 -4.15,3.62 -8.04,4.96 -3.76,1.21 -8.85,2.28 -15.02,2.95 -6.3,0.67 -14.35,0.94 -24,0.94 -9.66,0 -17.71,-0.27 -24.01,-0.94 -6.17,-0.67 -11.26,-1.74 -15.02,-2.95 -3.89,-1.34 -6.57,-2.95 -8.04,-4.96 -1.61,-2.01 -2.42,-4.29 -2.42,-6.84l0 -350.8c0,-2.54 0.67,-4.82 2.02,-6.84 1.2,-2.01 3.62,-3.62 6.97,-4.96 3.49,-1.2 7.78,-2.28 13.14,-2.95 5.36,-0.67 12.2,-0.94 20.25,-0.94 8.45,0 15.29,0.27 20.78,0.94 5.5,0.67 9.79,1.75 12.88,2.95 2.95,1.34 5.09,2.95 6.43,4.96 1.34,2.02 2.01,4.3 2.01,6.84l0 40.5c19.31,-20.92 39.03,-36.47 59.14,-46.93 19.98,-10.46 40.9,-15.69 62.62,-15.69 23.87,0 43.99,3.89 60.35,11.8 16.36,7.78 29.5,18.5 39.69,32.05 10.06,13.41 17.3,29.23 21.72,47.33 4.43,18.11 6.71,39.83 6.71,65.17l0 216.57zm580.28 0c0,2.53 -0.85,4.8 -2.41,6.84 -1.51,1.97 -4.15,3.66 -8.05,4.96 -3.73,1.24 -8.85,2.29 -15.02,2.95 -6.29,0.68 -14.34,0.94 -24,0.94 -9.65,0 -17.7,-0.26 -24,-0.94 -6.17,-0.66 -11.28,-1.71 -15.02,-2.95 -3.9,-1.3 -6.53,-2.99 -8.05,-4.96 -1.56,-2.04 -2.41,-4.29 -2.41,-6.84l0 -349.99c0,-2.55 0.85,-4.8 2.41,-6.84 1.52,-1.98 4.19,-3.68 8.05,-5.1 3.78,-1.39 8.85,-2.56 15.02,-3.35 6.3,-0.81 14.35,-1.21 24,-1.21 9.66,0 17.71,0.4 24,1.21 6.17,0.79 11.24,1.96 15.02,3.35 3.86,1.42 6.54,3.12 8.05,5.1 1.56,2.04 2.41,4.3 2.41,6.84l0 349.99zm8.05 -469.87c0,19.98 -4.03,33.66 -12.2,41.3 -8.18,7.64 -23.2,11.39 -45.33,11.39 -22.26,0 -37.38,-3.65 -45.06,-10.99 -7.74,-7.4 -11.66,-20.65 -11.66,-39.69 0,-19.98 4.02,-33.8 12.07,-41.57 7.9,-7.64 23.06,-11.54 45.46,-11.54 21.99,0 36.98,3.8 44.92,11.27 7.87,7.41 11.8,20.65 11.8,39.83zm407.17 469.87c0,2.53 -0.85,4.8 -2.41,6.84 -1.52,1.97 -4.14,3.7 -7.78,4.96 -3.73,1.28 -8.85,2.28 -15.29,2.95 -6.43,0.67 -14.35,0.94 -23.73,0.94 -9.79,0 -17.84,-0.27 -24.28,-0.94 -6.43,-0.67 -11.56,-1.67 -15.28,-2.95 -3.65,-1.26 -6.27,-2.99 -7.78,-4.96 -1.56,-2.04 -2.41,-4.29 -2.41,-6.84l0 -199.94c0,-17.03 -1.29,-30.42 -3.76,-40.09 -2.49,-9.77 -6.07,-18.09 -10.73,-24.95 -4.72,-6.94 -10.82,-12.42 -18.23,-16.22 -7.47,-3.83 -16.09,-5.63 -26.02,-5.63 -12.6,0 -25.2,4.57 -38.08,13.81 -12.73,9.13 -26.15,22.53 -39.96,39.96l0 233.06c0,2.54 -0.85,4.8 -2.42,6.84 -1.51,1.97 -4.14,3.66 -8.04,4.96 -3.74,1.24 -8.86,2.29 -15.02,2.95 -6.3,0.68 -14.35,0.94 -24,0.94 -9.66,0 -17.71,-0.26 -24.01,-0.94 -6.16,-0.66 -11.28,-1.71 -15.02,-2.95 -3.89,-1.3 -6.53,-2.99 -8.04,-4.96 -1.57,-2.04 -2.41,-4.29 -2.41,-6.84l0 -350.8c0,-2.54 0.72,-4.8 2.01,-6.84 1.25,-1.97 3.59,-3.7 6.97,-4.96 3.45,-1.28 7.78,-2.28 13.14,-2.95 5.36,-0.66 12.2,-0.94 20.25,-0.94 8.45,0 15.29,0.28 20.78,0.94 5.5,0.67 9.83,1.67 12.88,2.95 2.98,1.26 5.09,2.95 6.43,4.96 1.35,2.02 2.02,4.3 2.02,6.84l0 40.5c19.31,-20.92 39.04,-36.45 59.13,-46.93 19.99,-10.43 40.9,-15.69 62.63,-15.69 23.86,0 43.96,3.94 60.34,11.8 16.33,7.83 29.51,18.5 39.69,32.05 10.07,13.39 17.3,29.23 21.73,47.33 4.42,18.1 6.7,39.84 6.7,65.17l0 216.57zm402.34 -185.46c0,12.06 -2.68,20.93 -8.04,26.69 -5.36,5.76 -12.75,8.72 -22.26,8.72l-213.48 0c0,14.88 1.79,28.28 5.36,40.49 3.53,12.06 9.09,22.43 16.76,30.85 7.74,8.47 17.71,14.88 29.9,19.31 12.2,4.42 26.69,6.7 43.72,6.7 17.3,0 32.46,-1.2 45.59,-3.76 13.01,-2.53 24.41,-5.23 33.93,-8.31 9.52,-3.08 17.43,-5.76 23.74,-8.31 6.3,-2.55 11.39,-3.76 15.28,-3.76 2.42,0 4.41,0.44 5.9,1.34 1.59,0.97 2.99,2.54 4.03,4.97 0.96,2.26 1.74,5.63 2.14,9.92 0.4,4.29 0.54,9.79 0.54,16.22 0,5.77 -0.14,10.73 -0.4,14.75 -0.27,4.03 -0.69,7.51 -1.21,10.33 -0.55,2.94 -1.24,5.35 -2.28,7.24 -1.1,1.99 -2.38,3.93 -4.16,5.77 -1.7,1.77 -6.3,4.29 -13.94,7.51 -7.65,3.22 -17.31,6.3 -29.1,9.38 -11.8,3.08 -25.21,5.77 -40.37,8.05 -15.15,2.28 -31.37,3.49 -48.67,3.49 -31.25,0 -58.46,-3.94 -81.94,-11.8 -23.31,-7.82 -42.95,-19.69 -58.73,-35.67 -15.72,-15.92 -27.44,-36.19 -35.13,-60.48 -7.72,-24.38 -11.54,-52.97 -11.54,-85.69 0,-31.11 4.07,-59.13 12.21,-84.21 8.08,-24.93 19.88,-46.1 35.4,-63.56 15.45,-17.4 34.21,-30.68 56.32,-39.83 22.27,-9.22 47.2,-13.81 74.96,-13.81 29.37,0 54.41,4.37 75.23,13 20.88,8.66 37.99,20.63 51.36,35.94 13.31,15.25 23.2,33.53 29.5,54.45 6.3,20.91 9.38,43.72 9.38,68.39l0 15.68zm-95.74 -28.16c0.8,-27.75 -4.87,-49.59 -16.76,-65.43 -11.97,-15.93 -30.31,-23.87 -55.25,-23.87 -12.61,0 -23.59,2.44 -32.86,7.1 -9.36,4.72 -17.16,11 -23.33,19.04 -6.16,8.05 -10.82,17.45 -14.08,28.3 -3.3,11 -5.23,22.53 -5.76,34.86l148.04 0z"/>
  <path class="fil3" d="M2723.3 312.27c0,1.85 -0.18,3.17 -0.57,3.98 -0.39,0.81 -0.97,1.23 -1.72,1.23l-29.9 0 0 25.31 28.1 0c0.31,0 0.6,0.1 0.91,0.31 0.32,0.21 0.55,0.5 0.73,0.91 0.18,0.42 0.31,0.94 0.42,1.57 0.1,0.62 0.15,1.43 0.15,2.39 0,0.94 -0.05,1.72 -0.15,2.37 -0.11,0.68 -0.24,1.2 -0.42,1.59 -0.18,0.36 -0.41,0.65 -0.73,0.86 -0.31,0.21 -0.6,0.31 -0.91,0.31l-28.1 0 0 32.71c0,0.42 -0.1,0.76 -0.31,1.04 -0.21,0.26 -0.55,0.5 -1.02,0.68 -0.49,0.18 -1.14,0.31 -1.98,0.42 -0.86,0.1 -1.9,0.15 -3.17,0.15 -1.23,0 -2.24,-0.05 -3.1,-0.15 -0.83,-0.11 -1.51,-0.24 -2.01,-0.42 -0.52,-0.18 -0.86,-0.42 -1.06,-0.68 -0.21,-0.28 -0.32,-0.62 -0.32,-1.04l0 -74.06c0,-1.7 0.47,-2.89 1.38,-3.62 0.91,-0.76 1.88,-1.12 2.89,-1.12l38.6 0c0.75,0 1.33,0.41 1.72,1.25 0.39,0.86 0.57,2.18 0.57,4.01zm69.12 73.93c0,0.34 -0.12,0.65 -0.32,0.86 -0.21,0.23 -0.57,0.42 -1.09,0.57 -0.54,0.16 -1.31,0.29 -2.24,0.37 -0.94,0.07 -2.14,0.1 -3.57,0.1 -1.38,0 -2.5,-0.03 -3.33,-0.1 -0.86,-0.08 -1.54,-0.23 -2.09,-0.47 -0.52,-0.23 -0.92,-0.53 -1.17,-0.89 -0.24,-0.34 -0.42,-0.82 -0.62,-1.38l-6.56 -18.49c-0.76,-2.14 -1.62,-4.06 -2.53,-5.8 -0.91,-1.75 -1.98,-3.21 -3.2,-4.41 -1.23,-1.19 -2.66,-2.12 -4.33,-2.78 -1.66,-0.66 -3.8,-0.99 -6.46,-0.99l-7.86 0 0 33.1c0,0.36 -0.1,0.68 -0.31,0.96 -0.2,0.27 -0.55,0.5 -1.07,0.68 -0.49,0.17 -1.18,0.31 -1.98,0.42 -0.8,0.1 -1.85,0.15 -3.12,0.15 -1.23,0 -2.25,-0.05 -3.1,-0.15 -0.83,-0.1 -1.51,-0.25 -2.01,-0.42 -0.52,-0.18 -0.87,-0.42 -1.07,-0.68 -0.21,-0.28 -0.31,-0.6 -0.31,-0.96l0 -74.14c0,-1.7 0.48,-2.89 1.38,-3.62 0.92,-0.75 1.88,-1.12 2.89,-1.12l21.54 0c4.89,0 9.01,0.49 12.39,1.46 3.39,0.96 6.26,2.34 8.57,4.11 2.32,1.77 4.09,3.99 5.32,6.61 1.21,2.61 1.82,5.58 1.82,8.89 0,2.65 -0.38,5.07 -1.12,7.26 -0.74,2.18 -1.78,4.17 -3.13,5.91 -1.35,1.74 -3,3.28 -4.92,4.53 -1.93,1.27 -4.14,2.32 -6.64,3.16 1.38,0.54 2.64,1.23 3.8,2.08 1.16,0.84 2.18,1.88 3.13,3.1 0.95,1.22 1.84,2.66 2.68,4.27 0.85,1.64 1.72,3.46 2.5,5.49l6.82 17.82c0.51,1.32 0.88,2.29 1.05,2.94 0.16,0.62 0.26,1.15 0.26,1.56zm-18.03 -56.69c0,-1.77 -0.27,-3.44 -0.8,-4.98 -0.53,-1.53 -1.41,-2.86 -2.63,-3.95 -1.23,-1.1 -2.82,-1.98 -4.72,-2.61 -1.92,-0.64 -4.51,-0.96 -7.78,-0.96l-11.41 0 0 25.93 10.89 0c3.15,0 5.72,-0.32 7.73,-0.96 1.97,-0.63 3.62,-1.56 4.9,-2.76 1.27,-1.19 2.23,-2.63 2.86,-4.24 0.64,-1.64 0.96,-3.47 0.96,-5.47zm102.01 53.54c0.42,1.09 0.58,2.03 0.65,2.68 0.08,0.68 -0.09,1.19 -0.49,1.54 -0.4,0.35 -1.1,0.58 -2.06,0.68 -0.96,0.1 -2.29,0.15 -3.98,0.15 -1.67,0 -3,-0.03 -3.93,-0.1 -0.94,-0.08 -1.67,-0.22 -2.17,-0.37 -0.51,-0.15 -0.88,-0.37 -1.06,-0.67 -0.2,-0.32 -0.39,-0.71 -0.55,-1.15l-6.64 -18.18 -34.17 0 -6.22 18.02c-0.16,0.46 -0.46,0.83 -0.71,1.15 -0.24,0.3 -0.63,0.57 -1.09,0.76 -0.49,0.19 -1.2,0.36 -2.11,0.44 -0.93,0.07 -2.11,0.1 -3.54,0.1 -1.49,0 -2.66,-0.05 -3.57,-0.18 -0.88,-0.13 -1.52,-0.36 -1.87,-0.73 -0.35,-0.35 -0.5,-0.89 -0.45,-1.61 0.05,-0.7 0.28,-1.59 0.68,-2.66l27.55 -73.7c0.21,-0.56 0.45,-1.02 0.76,-1.38 0.31,-0.36 0.76,-0.62 1.38,-0.81 0.59,-0.17 1.4,-0.31 2.39,-0.39 0.99,-0.08 2.24,-0.1 3.78,-0.1 1.28,0 2.35,0 3.26,0.02 0.88,0.03 1.64,0.09 2.23,0.16 0.6,0.08 1.16,0.18 1.62,0.31 0.44,0.13 0.81,0.29 1.09,0.5 0.29,0.2 0.53,0.46 0.73,0.75 0.21,0.31 0.38,0.69 0.52,1.07l27.97 73.7zm-37.5 -63.91l-0.15 0 -13.31 38.34 27.37 0 -13.91 -38.34zm141.42 66.75c0,0.35 -0.07,0.68 -0.26,0.96 -0.17,0.27 -0.53,0.5 -1.01,0.68 -0.47,0.17 -1.13,0.31 -1.96,0.42 -0.8,0.09 -1.8,0.15 -2.97,0.15 -1.3,0 -2.34,-0.06 -3.15,-0.15 -0.83,-0.11 -1.46,-0.24 -1.92,-0.42 -0.47,-0.18 -0.8,-0.42 -0.97,-0.68 -0.18,-0.28 -0.26,-0.6 -0.26,-0.96l0 -67.74 -0.16 0 -28.41 68.13c-0.24,0.58 -0.76,1.06 -1.64,1.35 -0.88,0.3 -2.37,0.47 -4.4,0.47 -1.07,0 -1.96,-0.03 -2.66,-0.1 -0.7,-0.08 -1.3,-0.23 -1.74,-0.37 -0.46,-0.14 -0.8,-0.34 -1.04,-0.57 -0.23,-0.21 -0.46,-0.48 -0.58,-0.78l-27.34 -68.13 -0.16 0 0 67.74c0,0.36 -0.07,0.68 -0.26,0.96 -0.17,0.26 -0.49,0.5 -0.96,0.68 -0.47,0.18 -1.1,0.31 -1.93,0.42 -0.8,0.09 -1.85,0.15 -3.12,0.15 -1.3,0 -2.32,-0.05 -3.13,-0.15 -0.77,-0.1 -1.41,-0.24 -1.87,-0.42 -0.47,-0.18 -0.79,-0.41 -0.97,-0.68 -0.18,-0.28 -0.26,-0.6 -0.26,-0.96l0 -73.86c0,-1.72 0.5,-2.99 1.46,-3.8 0.97,-0.81 2.06,-1.22 3.31,-1.22l8.28 0c1.56,0 2.92,0.17 4.04,0.47 1.09,0.29 2.09,0.77 2.91,1.43 0.84,0.66 1.58,1.51 2.19,2.52 0.61,1.01 1.04,2.26 1.59,3.6l22.63 54.66 0.31 0 23.31 -54.35c0.66,-1.52 1.26,-2.84 1.88,-3.91 0.62,-1.06 1.37,-1.93 2.21,-2.6 0.82,-0.66 1.78,-1.12 2.81,-1.41 1.04,-0.28 2.27,-0.41 3.7,-0.41l7.81 0c1.28,0 2.4,0.41 3.31,1.22 0.91,0.81 1.38,2.09 1.38,3.8l0 73.86zm62.08 -3.41c0,0.91 -0.06,1.7 -0.15,2.34 -0.1,0.67 -0.24,1.21 -0.42,1.64 -0.17,0.41 -0.42,0.74 -0.68,0.91 -0.27,0.19 -0.58,0.26 -0.88,0.26l-40.94 0c-1,0 -1.98,-0.37 -2.89,-1.12 -0.9,-0.73 -1.38,-1.92 -1.38,-3.62l0 -71.14c0,-1.7 0.48,-2.89 1.38,-3.62 0.91,-0.74 1.87,-1.12 2.89,-1.12l40.39 0c0.37,0 0.69,0.07 0.96,0.26 0.26,0.17 0.5,0.47 0.68,0.88 0.17,0.39 0.31,0.94 0.42,1.62 0.1,0.67 0.15,1.48 0.15,2.39 0,0.91 -0.05,1.68 -0.15,2.32 -0.1,0.62 -0.24,1.13 -0.42,1.51 -0.17,0.36 -0.42,0.68 -0.68,0.86 -0.28,0.2 -0.61,0.31 -0.96,0.31l-31.69 0 0 23.6 27.32 0c0.36,0 0.68,0.08 0.96,0.26 0.26,0.17 0.54,0.47 0.73,0.88 0.19,0.41 0.34,0.95 0.42,1.62 0.07,0.64 0.1,1.46 0.1,2.42 0,0.89 -0.03,1.62 -0.1,2.27 -0.08,0.62 -0.23,1.15 -0.42,1.56 -0.19,0.41 -0.47,0.71 -0.73,0.88 -0.28,0.19 -0.61,0.26 -0.96,0.26l-27.32 0 0 26.57 32.24 0c0.31,0 0.61,0.08 0.88,0.26 0.26,0.17 0.5,0.48 0.68,0.88 0.17,0.39 0.32,0.92 0.42,1.54 0.1,0.64 0.15,1.41 0.15,2.32zm102 2.86c-0.16,0.56 -0.5,1.05 -0.81,1.38 -0.33,0.36 -0.84,0.65 -1.48,0.84 -0.67,0.19 -1.51,0.36 -2.53,0.44 -1.01,0.08 -2.29,0.1 -3.8,0.1 -1.72,0 -3.16,-0.03 -4.25,-0.1 -1.06,-0.07 -1.93,-0.25 -2.55,-0.44 -0.59,-0.19 -1.05,-0.5 -1.33,-0.92 -0.25,-0.38 -0.47,-0.91 -0.65,-1.51l-17.03 -58.2 -0.23 0 -16.15 58.28c-0.16,0.6 -0.46,1.11 -0.75,1.49 -0.3,0.37 -0.8,0.67 -1.38,0.86 -0.6,0.19 -1.44,0.36 -2.45,0.44 -1.02,0.08 -2.29,0.1 -3.88,0.1 -1.62,0 -3,-0.03 -4.09,-0.1 -1.06,-0.07 -1.96,-0.26 -2.61,-0.44 -0.66,-0.2 -1.14,-0.49 -1.45,-0.84 -0.3,-0.34 -0.58,-0.83 -0.76,-1.43l-22.58 -73.7c-0.34,-1.13 -0.55,-2.04 -0.57,-2.73 -0.02,-0.68 0.19,-1.18 0.65,-1.51 0.46,-0.34 1.17,-0.55 2.14,-0.66 0.96,-0.1 2.26,-0.15 3.88,-0.15 1.53,0 2.71,0.03 3.56,0.1 0.83,0.07 1.5,0.21 1.98,0.39 0.47,0.17 0.82,0.43 0.99,0.73 0.18,0.31 0.35,0.72 0.5,1.23l18.59 65.21 0.16 0 17.97 -64.98c0.16,-0.57 0.35,-1.02 0.54,-1.35 0.18,-0.31 0.54,-0.59 0.99,-0.79 0.45,-0.18 1.1,-0.37 1.93,-0.44 0.83,-0.07 2.01,-0.1 3.46,-0.1 1.44,0 2.58,0.02 3.44,0.1 0.86,0.08 1.52,0.25 1.98,0.44 0.43,0.19 0.77,0.48 0.94,0.79 0.18,0.33 0.36,0.73 0.49,1.19l18.88 65.14 0.08 0 17.27 -64.98c0.15,-0.57 0.35,-1.02 0.55,-1.35 0.18,-0.31 0.55,-0.6 1.01,-0.79 0.49,-0.19 1.18,-0.37 2.03,-0.44 0.88,-0.07 2.06,-0.1 3.54,-0.1 1.49,0 2.64,0.06 3.49,0.15 0.83,0.1 1.45,0.34 1.8,0.68 0.36,0.35 0.47,0.89 0.44,1.56 -0.03,0.7 -0.18,1.64 -0.52,2.79l-21.43 73.62zm104.08 -39.01c0,6.62 -0.83,12.56 -2.48,17.81 -1.65,5.26 -4.1,9.74 -7.32,13.42 -3.22,3.68 -7.24,6.54 -12,8.51 -4.79,1.98 -10.26,2.97 -16.49,2.97 -6.2,0 -11.61,-0.88 -16.25,-2.6 -4.65,-1.73 -8.55,-4.31 -11.66,-7.74 -3.12,-3.43 -5.47,-7.72 -6.98,-12.84 -1.52,-5.13 -2.29,-11.12 -2.29,-17.92 0,-6.4 0.85,-12.24 2.52,-17.44 1.67,-5.2 4.15,-9.64 7.4,-13.31 3.22,-3.64 7.27,-6.5 12.03,-8.46 4.78,-1.98 10.26,-2.97 16.46,-2.97 5.96,0 11.23,0.87 15.83,2.6 4.57,1.72 8.48,4.3 11.62,7.68 3.15,3.4 5.54,7.64 7.16,12.66 1.62,5.05 2.45,10.91 2.45,17.63zm-13.6 0.83c0,-4.48 -0.42,-8.6 -1.25,-12.34 -0.82,-3.72 -2.21,-6.99 -4.09,-9.74 -1.86,-2.73 -4.32,-4.87 -7.37,-6.41 -3.04,-1.53 -6.82,-2.29 -11.27,-2.29 -4.48,0 -8.23,0.83 -11.31,2.45 -3.06,1.62 -5.57,3.87 -7.47,6.69 -1.89,2.81 -3.32,6.1 -4.19,9.85 -0.88,3.74 -1.33,7.68 -1.33,11.79 0,4.64 0.42,8.89 1.22,12.69 0.81,3.82 2.17,7.11 4.07,9.89 1.89,2.78 4.38,4.92 7.42,6.41 3.04,1.49 6.82,2.26 11.27,2.26 4.48,0 8.26,-0.85 11.36,-2.52 3.09,-1.67 5.6,-3.94 7.52,-6.8 1.92,-2.83 3.34,-6.18 4.17,-9.97 0.83,-3.77 1.25,-7.76 1.25,-11.96zm85.42 39.04c0,0.34 -0.12,0.66 -0.31,0.86 -0.21,0.22 -0.58,0.43 -1.09,0.57 -0.54,0.15 -1.31,0.3 -2.24,0.37 -0.93,0.07 -2.14,0.1 -3.57,0.1 -1.38,0 -2.51,-0.03 -3.33,-0.1 -0.85,-0.07 -1.55,-0.24 -2.09,-0.47 -0.51,-0.22 -0.93,-0.54 -1.17,-0.89 -0.23,-0.34 -0.43,-0.82 -0.62,-1.38l-6.57 -18.49c-0.76,-2.14 -1.62,-4.07 -2.52,-5.8 -0.9,-1.74 -1.99,-3.22 -3.21,-4.41 -1.21,-1.18 -2.66,-2.12 -4.32,-2.78 -1.65,-0.65 -3.82,-0.99 -6.46,-0.99l-7.86 0 0 33.1c0,0.34 -0.11,0.69 -0.31,0.96 -0.2,0.26 -0.56,0.5 -1.07,0.68 -0.49,0.17 -1.18,0.32 -1.98,0.42 -0.8,0.09 -1.85,0.15 -3.13,0.15 -1.22,0 -2.25,-0.06 -3.1,-0.15 -0.82,-0.1 -1.51,-0.25 -2,-0.42 -0.51,-0.18 -0.87,-0.42 -1.07,-0.68 -0.2,-0.27 -0.31,-0.6 -0.31,-0.96l0 -74.14c0,-1.7 0.48,-2.89 1.38,-3.62 0.91,-0.74 1.87,-1.12 2.89,-1.12l21.54 0c4.89,0 9.02,0.5 12.39,1.46 3.38,0.95 6.26,2.35 8.57,4.11 2.31,1.76 4.1,4 5.31,6.61 1.21,2.6 1.83,5.58 1.83,8.89 0,2.65 -0.39,5.08 -1.12,7.26 -0.73,2.17 -1.78,4.18 -3.13,5.91 -1.34,1.74 -3.01,3.28 -4.92,4.53 -1.92,1.26 -4.14,2.32 -6.64,3.16 1.38,0.54 2.65,1.24 3.8,2.08 1.15,0.83 2.19,1.89 3.13,3.1 0.94,1.22 1.85,2.67 2.68,4.27 0.84,1.63 1.72,3.47 2.5,5.49l6.82 17.82c0.51,1.31 0.88,2.29 1.04,2.94 0.16,0.61 0.26,1.15 0.26,1.56zm-18.02 -56.69c0,-1.77 -0.28,-3.45 -0.81,-4.98 -0.52,-1.52 -1.41,-2.87 -2.62,-3.95 -1.22,-1.09 -2.83,-1.98 -4.72,-2.61 -1.92,-0.63 -4.52,-0.96 -7.79,-0.96l-11.4 0 0 25.93 10.88 0c3.15,0 5.74,-0.33 7.74,-0.96 1.97,-0.62 3.63,-1.57 4.89,-2.76 1.27,-1.19 2.25,-2.64 2.87,-4.24 0.63,-1.64 0.96,-3.47 0.96,-5.47zm87.77 56.3c0,0.37 -0.11,0.69 -0.31,0.99 -0.2,0.3 -0.56,0.56 -1.02,0.73 -0.48,0.17 -1.18,0.32 -2.08,0.42 -0.88,0.09 -1.98,0.15 -3.26,0.15 -1.4,0 -2.58,-0.03 -3.51,-0.1 -0.9,-0.07 -1.68,-0.22 -2.24,-0.39 -0.59,-0.18 -1.05,-0.43 -1.38,-0.73 -0.33,-0.3 -0.6,-0.67 -0.89,-1.07l-29.37 -40.39 0 40.39c0,0.4 -0.11,0.77 -0.31,1.04 -0.2,0.26 -0.56,0.5 -1.07,0.68 -0.49,0.17 -1.19,0.32 -1.98,0.42 -0.8,0.09 -1.85,0.15 -3.13,0.15 -1.22,0 -2.25,-0.06 -3.1,-0.15 -0.82,-0.1 -1.52,-0.25 -2,-0.42 -0.51,-0.18 -0.88,-0.42 -1.07,-0.68 -0.2,-0.27 -0.31,-0.6 -0.31,-0.96l0 -77.22c0,-0.31 0.11,-0.61 0.31,-0.88 0.19,-0.26 0.56,-0.5 1.07,-0.68 0.48,-0.17 1.18,-0.32 2,-0.42 0.85,-0.09 1.88,-0.15 3.1,-0.15 1.28,0 2.33,0.06 3.13,0.15 0.79,0.1 1.49,0.25 1.98,0.42 0.51,0.18 0.87,0.42 1.07,0.68 0.2,0.27 0.31,0.59 0.31,0.88l0 35.06 27.97 -34.98c0.32,-0.4 0.65,-0.78 1.01,-1.04 0.37,-0.26 0.87,-0.51 1.41,-0.68 0.56,-0.17 1.26,-0.32 2.06,-0.39 0.79,-0.07 1.82,-0.1 3.04,-0.1 1.33,0 2.44,0.06 3.28,0.15 0.85,0.1 1.55,0.25 2.01,0.42 0.48,0.18 0.85,0.42 1.07,0.68 0.23,0.27 0.34,0.6 0.34,0.96 0,0.31 -0.04,0.61 -0.11,0.89 -0.07,0.27 -0.21,0.61 -0.34,0.93 -0.14,0.36 -0.39,0.78 -0.65,1.2 -0.26,0.44 -0.66,0.96 -1.12,1.49l-26.22 30.31 28.57 38.41c0.29,0.39 0.56,0.82 0.75,1.15 0.2,0.35 0.39,0.72 0.52,1.04 0.14,0.33 0.3,0.64 0.37,0.89 0.06,0.22 0.1,0.49 0.1,0.75z"/>
  <rect class="fil4" x="-0" width="3600" height="1200"/>
 </g>
</svg>
